<svg width="108" height="20" viewBox="0 0 108 20" fill="none" xmlns="http://www.w3.org/2000/svg">
<path fill-rule="evenodd" clip-rule="evenodd" d="M60.2953 15.8461C63.7958 15.8461 66.2684 13.3312 66.2684 9.79811C66.2684 6.26505 63.7958 3.75032 60.2953 3.75032C59.244 3.75053 58.284 4.03158 57.4703 4.53411V0H53.5991V15.4737H56.4968L56.8661 14.6297C57.7897 15.4013 58.9686 15.8461 60.2953 15.8461ZM33.6905 15.8461C36.7113 15.8463 38.7164 14.2916 38.7164 11.9158C38.7164 9.08169 36.4088 8.67295 34.6246 8.3569L34.5328 8.34063L34.5103 8.33662C33.4408 8.14588 32.5833 7.99298 32.5833 7.35053C32.5833 6.82358 33.005 6.51284 33.6328 6.51284C34.3423 6.51284 34.8303 6.85032 34.8303 7.57621H38.4972C38.4526 5.27263 36.5764 3.73263 33.6814 3.73263C30.7686 3.73263 28.8267 5.20379 28.8267 7.48253C28.8267 10.2398 31.1635 10.7718 32.9263 11.0575C34.0185 11.2381 34.8791 11.4251 34.8791 12.0808C34.8791 12.6684 34.3362 12.9606 33.7633 12.9606C33.0208 12.9606 32.4421 12.5779 32.4421 11.7465H28.673C28.7088 14.2097 30.592 15.8461 33.6905 15.8461ZM12.7059 11.6309C11.9059 14.2255 9.60608 15.8465 6.75387 15.8465C3.20671 15.8465 0.578918 13.2539 0.578918 9.78084C0.578918 6.29558 3.18566 3.73284 6.75387 3.73284C10.4183 3.73284 12.9556 6.34716 12.9553 9.68211C12.9553 10.0246 12.9254 10.3672 12.8745 10.7187H4.43302C4.68923 12.0227 5.51745 12.6971 6.75387 12.6971C7.6686 12.6971 8.43281 12.2964 8.80923 11.6309H12.7059ZM4.50208 8.55032H9.09787C8.75429 7.4141 7.93534 6.80105 6.75366 6.80105C5.61239 6.80105 4.81892 7.42105 4.50208 8.55032ZM20.044 15.8463C21.3644 15.8463 22.5433 15.4118 23.4743 14.6577L23.8097 15.4617H26.8368V4.09326L23.9183 4.09305L23.5177 4.97221C22.5789 4.19768 21.3829 3.75053 20.044 3.75053C16.5678 3.75053 14.0829 6.25642 14.0829 9.77726C14.0829 13.3103 16.5678 15.8463 20.044 15.8463ZM18.0227 9.78632C18.0227 11.2709 19.1008 12.3792 20.5676 12.3792C22.0343 12.3792 23.1124 11.2709 23.1124 9.78632C23.1124 8.31074 22.0343 7.20253 20.5676 7.20253C19.092 7.20253 18.0227 8.31074 18.0227 9.78632ZM47.6675 14.9678C46.1351 18.4472 44.7265 19.704 41.7911 19.704H40.4503V16.3394H41.5271C43.0252 16.3394 43.477 15.9493 44.0075 14.5345L39.3097 4.10526H43.5648L45.9774 10.3678L48.2257 4.10526H52.4324L47.6675 14.9678ZM57.2267 9.79811C57.2267 11.2705 58.3048 12.3787 59.7715 12.3787C61.2292 12.3787 62.3164 11.2705 62.3164 9.79811C62.3164 8.31347 61.2383 7.20526 59.7715 7.20526C58.3048 7.20526 57.2267 8.31347 57.2267 9.79811ZM73.3703 15.8463C74.6907 15.8463 75.8697 15.4118 76.8006 14.6577L77.136 15.4617H80.1631V4.09326L77.2446 4.09305L76.844 4.97221C75.9052 4.19768 74.7092 3.75053 73.3703 3.75053C69.8941 3.75053 67.4092 6.25642 67.4092 9.77726C67.4092 13.3103 69.8941 15.8463 73.3703 15.8463ZM71.349 9.78632C71.349 11.2709 72.4271 12.3792 73.8939 12.3792C75.3606 12.3792 76.4387 11.2709 76.4387 9.78632C76.4387 8.31074 75.3606 7.20253 73.8939 7.20253C72.4183 7.20253 71.349 8.31074 71.349 9.78632ZM86.5465 15.4737V9.40295C86.5465 7.956 87.249 7.10316 88.4701 7.10316C89.4556 7.10316 89.9526 7.75958 89.9526 9.08274V15.4737H93.8684V8.54169C93.8684 5.64526 92.1345 3.76905 89.4945 3.76905C88.0244 3.76905 86.7623 4.33432 85.9158 5.27747L85.3779 4.10526H82.6307V15.4737H86.5465ZM100.295 10.6661V15.4737H96.3793V0H100.295V8.55895L103.003 4.10526H107.4L103.857 9.52358L107.759 15.4737H103.143L100.295 10.6661Z" fill="#2D314D"/>
</svg>
