<svg width="180" height="67" viewBox="0 0 180 67" fill="none" xmlns="http://www.w3.org/2000/svg">
<rect x="0.695801" y="0.166626" width="179.167" height="66.6667" rx="4" fill="url(#paint0_linear_0_462)"/>
<path fill-rule="evenodd" clip-rule="evenodd" d="M29.586 29.3661C29.5216 29.3783 29.4614 29.3843 29.4055 29.3843C29.1819 29.3843 29.0027 29.3552 28.8678 29.2968C28.7329 29.2385 28.6302 29.1601 28.5597 29.0617C28.4892 28.9632 28.4424 28.8514 28.4193 28.7263C28.3962 28.6011 28.3847 28.4717 28.3847 28.338V23.9156H29.154V28.2578C29.154 28.4328 29.1886 28.5665 29.2579 28.6588C29.3271 28.7512 29.4335 28.8034 29.5769 28.8156L29.7738 28.8229V29.3187C29.713 29.3382 29.6504 29.354 29.586 29.3661ZM16.0344 29.3333V24.7724H17.6277V24.0614H13.5771V24.7724H15.2469V29.3333H16.0344ZM19.2134 29.4062C19.5901 29.4062 19.9079 29.3242 20.1668 29.1601C20.4256 28.9961 20.6225 28.7682 20.7574 28.4765C20.8923 28.1849 20.9597 27.8482 20.9597 27.4666C20.9597 27.0486 20.888 26.6919 20.7446 26.3966C20.6012 26.1013 20.3995 25.8764 20.1394 25.7221C19.8794 25.5678 19.5719 25.4906 19.217 25.4906C18.8451 25.4906 18.528 25.5726 18.2655 25.7367C18.003 25.9007 17.803 26.131 17.6657 26.4276C17.5284 26.7241 17.4597 27.0704 17.4597 27.4666C17.4597 27.8774 17.532 28.2274 17.6767 28.5166C17.8213 28.8059 18.0254 29.0264 18.2892 29.1783C18.5529 29.3303 18.8609 29.4062 19.2134 29.4062ZM18.6446 28.6187C18.7905 28.7427 18.9813 28.8047 19.217 28.8047C19.4309 28.8047 19.6102 28.7481 19.7548 28.6351C19.8994 28.5221 20.0082 28.3629 20.0811 28.1575C20.154 27.9521 20.1905 27.7145 20.1905 27.4448C20.1905 27.1944 20.1583 26.9665 20.0938 26.7612C20.0294 26.5558 19.9255 26.3923 19.7821 26.2708C19.6387 26.1493 19.4504 26.0885 19.217 26.0885C18.9983 26.0885 18.816 26.1438 18.6701 26.2544C18.5243 26.365 18.4143 26.5218 18.3402 26.7247C18.2661 26.9277 18.229 27.1677 18.229 27.4448C18.229 27.6902 18.2618 27.9163 18.3274 28.1229C18.3931 28.3295 18.4988 28.4948 18.6446 28.6187ZM23.0169 29.3588C23.1676 29.3588 23.2909 29.3515 23.3869 29.3369C23.483 29.3224 23.5553 29.3053 23.6039 29.2859V28.7791H23.1627C23.0558 28.7791 22.9713 28.7712 22.9093 28.7554C22.8474 28.7396 22.8036 28.7032 22.7781 28.6461C22.7526 28.5889 22.7398 28.4984 22.7398 28.3744L22.7362 26.125H23.582V25.5599H22.7362V24.4552H22.1711L21.9778 25.5635H21.3435V26.125H21.956V28.4036C21.956 28.6053 21.9857 28.7773 22.0453 28.9195C22.1048 29.0617 22.2118 29.1704 22.3661 29.2458C22.5205 29.3211 22.7374 29.3588 23.0169 29.3588ZM26.1482 29.2403C25.9331 29.3509 25.6907 29.4062 25.4209 29.4062C25.1778 29.4062 24.9621 29.3625 24.7737 29.275C24.5854 29.1875 24.4377 29.0611 24.3308 28.8958C24.2238 28.7305 24.1703 28.5312 24.1703 28.2979C24.1703 27.8798 24.3186 27.5675 24.6151 27.3609C24.9117 27.1543 25.3844 27.0449 26.0334 27.0328L26.6532 27.0145V26.7411C26.6532 26.5248 26.5887 26.3547 26.4599 26.2307C26.3311 26.1067 26.133 26.046 25.8657 26.0484C25.6639 26.0484 25.4847 26.0946 25.3279 26.1869C25.1711 26.2793 25.0684 26.4312 25.0198 26.6427H24.3417C24.3563 26.3923 24.4286 26.1815 24.5586 26.0101C24.6887 25.8388 24.8679 25.7093 25.0964 25.6218C25.3249 25.5343 25.5934 25.4906 25.9021 25.4906C26.2448 25.4906 26.5268 25.5374 26.7479 25.631C26.9691 25.7245 27.1338 25.8612 27.242 26.0411C27.3501 26.221 27.4042 26.4397 27.4042 26.6974V29.3333H26.7443L26.6823 28.6406C26.5414 28.9298 26.3633 29.1297 26.1482 29.2403ZM25.6651 28.863C25.4512 28.863 25.2738 28.8065 25.1328 28.6935C24.9919 28.5804 24.9214 28.4231 24.9214 28.2213C24.9214 28.0439 24.9694 27.9017 25.0654 27.7948C25.1614 27.6878 25.2999 27.6088 25.481 27.5578C25.6621 27.5067 25.8827 27.48 26.1427 27.4776L26.6532 27.4666V28.0901C26.6507 28.1873 26.621 28.2821 26.5638 28.3744C26.5067 28.4668 26.4308 28.5501 26.336 28.6242C26.2412 28.6983 26.1354 28.7566 26.0188 28.7992C25.9021 28.8417 25.7842 28.863 25.6651 28.863ZM34.159 29.4062C34.4896 29.4062 34.7764 29.3582 35.0194 29.2622C35.2625 29.1662 35.466 29.0343 35.6301 28.8666C35.7942 28.6989 35.9224 28.5087 36.0147 28.2961C36.1071 28.0834 36.1679 27.8616 36.197 27.6307H35.3658C35.3293 27.83 35.2595 28.0141 35.1562 28.183C35.0529 28.352 34.9161 28.4869 34.746 28.5877C34.5759 28.6886 34.3741 28.739 34.1408 28.739C33.6887 28.739 33.3424 28.5744 33.1017 28.245C32.8611 27.9157 32.7408 27.3949 32.7408 26.6828C32.7408 26.2112 32.7949 25.826 32.903 25.527C33.0112 25.2281 33.1698 25.0081 33.3788 24.8672C33.5878 24.7262 33.8418 24.6557 34.1408 24.6557C34.3741 24.6557 34.5759 24.7025 34.746 24.7961C34.9161 24.8896 35.0529 25.0172 35.1562 25.1789C35.2595 25.3405 35.3293 25.521 35.3658 25.7203H36.197C36.163 25.4019 36.0567 25.1114 35.878 24.8489C35.6994 24.5864 35.463 24.3774 35.1689 24.2218C34.8748 24.0663 34.5382 23.9885 34.159 23.9885C33.6802 23.9885 33.2706 24.0942 32.9304 24.3057C32.5901 24.5172 32.33 24.8228 32.1502 25.2226C31.9703 25.6224 31.8804 26.1055 31.8804 26.6718C31.8804 27.2406 31.9709 27.7285 32.152 28.1356C32.3331 28.5428 32.5937 28.8563 32.934 29.0763C33.2743 29.2962 33.6826 29.4062 34.159 29.4062ZM37.772 26.8468V29.3333H36.9918V23.9156H37.7611V26.114C37.8219 26.0144 37.9039 25.9196 38.0072 25.8297C38.1105 25.7397 38.2369 25.6662 38.3864 25.6091C38.5358 25.552 38.7102 25.5234 38.9095 25.5234C39.155 25.5234 39.3768 25.569 39.5749 25.6601C39.773 25.7513 39.931 25.8825 40.0489 26.0539C40.1667 26.2252 40.2257 26.4288 40.2257 26.6645V29.3333H39.4455V26.8067C39.4455 26.5953 39.3726 26.4324 39.2267 26.3182C39.0809 26.204 38.8937 26.1468 38.6653 26.1468C38.5121 26.1468 38.3669 26.173 38.2296 26.2252C38.0923 26.2775 37.9817 26.3553 37.8978 26.4586C37.814 26.5619 37.772 26.6913 37.772 26.8468ZM42.7288 29.4062C42.9791 29.4062 43.2185 29.3606 43.447 29.2695C43.6755 29.1783 43.8705 29.0428 44.0322 28.863C44.1938 28.6831 44.2965 28.4644 44.3402 28.2067H43.6184C43.5673 28.4085 43.4598 28.5604 43.2957 28.6625C43.1316 28.7645 42.9378 28.8156 42.7142 28.8156C42.4906 28.8156 42.3034 28.7639 42.1527 28.6606C42.002 28.5573 41.8896 28.4164 41.8155 28.2377C41.7414 28.0591 41.7043 27.8567 41.7043 27.6307H44.3585V27.3718C44.3585 26.9902 44.2941 26.6591 44.1652 26.3783C44.0364 26.0976 43.8474 25.8795 43.5983 25.7239C43.3492 25.5684 43.0423 25.4906 42.6777 25.4906C42.3083 25.4906 41.9923 25.5757 41.7298 25.7458C41.4673 25.9159 41.2668 26.1511 41.1283 26.4513C40.9897 26.7514 40.9204 27.0972 40.9204 27.4885C40.9204 27.8847 40.9964 28.2262 41.1483 28.513C41.3002 28.7998 41.5123 29.0204 41.7845 29.1747C42.0567 29.329 42.3715 29.4062 42.7288 29.4062ZM41.7043 27.1239H43.6147C43.6147 26.927 43.5807 26.7478 43.5126 26.5862C43.4446 26.4245 43.3407 26.2969 43.2009 26.2033C43.0612 26.1098 42.8855 26.063 42.6741 26.063C42.4578 26.063 42.2779 26.1152 42.1345 26.2198C41.9911 26.3243 41.8835 26.4579 41.8118 26.6208C41.7401 26.7836 41.7043 26.9514 41.7043 27.1239ZM46.6503 29.4062C46.9274 29.4062 47.1759 29.3527 47.3959 29.2458C47.6159 29.1389 47.7945 28.9894 47.9318 28.7974C48.0692 28.6053 48.1512 28.3829 48.1779 28.1302H47.5144C47.4949 28.2444 47.45 28.355 47.3795 28.4619C47.309 28.5689 47.2136 28.6564 47.0933 28.7244C46.973 28.7925 46.8314 28.8265 46.6686 28.8265C46.3307 28.8265 46.0737 28.7026 45.8975 28.4547C45.7212 28.2067 45.6331 27.8737 45.6331 27.4557C45.6331 26.9987 45.7279 26.6597 45.9175 26.4385C46.1071 26.2173 46.3526 26.1067 46.654 26.1067C46.8192 26.1067 46.962 26.1389 47.0824 26.2033C47.2027 26.2678 47.2987 26.3534 47.3704 26.4604C47.4421 26.5673 47.4889 26.6828 47.5107 26.8067H48.1852C48.1561 26.5442 48.0734 26.3145 47.9373 26.1177C47.8012 25.9208 47.6232 25.7671 47.4032 25.6565C47.1832 25.5459 46.9323 25.4906 46.6503 25.4906C46.2833 25.4906 45.9679 25.5732 45.7042 25.7385C45.4405 25.9038 45.2394 26.1347 45.1008 26.4312C44.9623 26.7277 44.893 27.0717 44.893 27.463C44.893 27.8786 44.9678 28.2316 45.1173 28.5221C45.2667 28.8126 45.4739 29.0325 45.7389 29.182C46.0038 29.3315 46.3076 29.4062 46.6503 29.4062ZM49.7172 28.2177V29.3333H48.9369V23.9156H49.7172V27.3609L51.3833 25.5635H52.2583L50.8948 27.0182L52.3385 29.3333H51.5291L50.3953 27.514L49.7172 28.2177ZM53.808 24.8343V24.0651H53.0242V24.8343H53.808ZM53.7934 25.5635V29.3333H53.0424V25.5635H53.7934ZM55.6239 29.3333V26.8432C55.6239 26.6876 55.6664 26.5582 55.7515 26.4549C55.8365 26.3516 55.9483 26.2744 56.0869 26.2234C56.2254 26.1724 56.3713 26.1468 56.5244 26.1468C56.7529 26.1468 56.9394 26.2125 57.084 26.3437C57.2286 26.475 57.3009 26.6755 57.3009 26.9453V29.3333H58.0812V26.8614C58.0812 26.5479 58.0204 26.2921 57.8989 26.094C57.7773 25.8959 57.6163 25.7501 57.4158 25.6565C57.2153 25.5629 56.9971 25.5161 56.7614 25.5161C56.5621 25.5161 56.3864 25.5441 56.2345 25.6C56.0826 25.6559 55.955 25.7288 55.8517 25.8187C55.7484 25.9086 55.6664 26.0047 55.6056 26.1067V25.5635H54.8437V29.3333H55.6239ZM62.0312 30.2502C61.7176 30.4702 61.2413 30.5802 60.602 30.5802C59.9895 30.5802 59.5156 30.4945 59.1801 30.3231C58.8447 30.1518 58.677 29.913 58.677 29.6067C58.677 29.4731 58.7092 29.3594 58.7736 29.2658C58.838 29.1723 58.9146 29.0951 59.0033 29.0343C59.092 28.9736 59.1741 28.9256 59.2494 28.8903C59.3248 28.8551 59.3734 28.8302 59.3952 28.8156L59.2367 28.7226C59.1722 28.6849 59.1145 28.6339 59.0635 28.5695C59.0124 28.5051 58.9869 28.4206 58.9869 28.3161C58.9869 28.1946 59.0446 28.0822 59.1601 27.9789C59.2755 27.8756 59.4487 27.7996 59.6796 27.751C59.4511 27.6392 59.2743 27.4885 59.1492 27.2989C59.024 27.1093 58.9614 26.9076 58.9614 26.6937C58.9614 26.4482 59.0307 26.2362 59.1692 26.0575C59.3077 25.8789 59.5028 25.7422 59.7544 25.6474C60.0059 25.5526 60.3018 25.5052 60.6421 25.5052C60.89 25.5052 61.0979 25.5331 61.2656 25.589C61.4333 25.6449 61.5876 25.7227 61.7286 25.8224C61.7748 25.8053 61.8404 25.7792 61.9255 25.744C62.0105 25.7087 62.1047 25.6704 62.208 25.6291C62.3113 25.5878 62.4097 25.5477 62.5033 25.5088L62.7312 25.414L62.7275 26.0922L62.0713 26.2125C62.1053 26.2854 62.1327 26.3656 62.1533 26.4531C62.174 26.5406 62.1843 26.6208 62.1843 26.6937C62.1843 26.9125 62.1248 27.1136 62.0057 27.2971C61.8866 27.4806 61.7079 27.627 61.4697 27.7364C61.2315 27.8458 60.9338 27.9005 60.5765 27.9005C60.5425 27.9005 60.4987 27.8999 60.4452 27.8987C60.3918 27.8974 60.3468 27.8944 60.3104 27.8895C60.0843 27.8968 59.9288 27.923 59.8437 27.9679C59.7586 28.0129 59.7161 28.0621 59.7161 28.1156C59.7161 28.1836 59.7708 28.2298 59.8801 28.2541C59.9895 28.2784 60.1694 28.2991 60.4197 28.3161C60.5097 28.3234 60.6245 28.3307 60.7643 28.338C60.904 28.3453 61.059 28.355 61.2291 28.3672C61.6423 28.3915 61.9577 28.4948 62.1752 28.677C62.3927 28.8593 62.5015 29.1012 62.5015 29.4026C62.5015 29.7477 62.3447 30.0303 62.0312 30.2502ZM60.5984 27.4229C60.3286 27.4229 60.1189 27.3597 59.9695 27.2333C59.82 27.1069 59.7452 26.9319 59.7452 26.7083C59.7452 26.4725 59.8236 26.289 59.9804 26.1578C60.1372 26.0265 60.3432 25.9609 60.5984 25.9609C60.8512 25.9609 61.0547 26.0259 61.209 26.156C61.3634 26.286 61.4406 26.4701 61.4406 26.7083C61.4406 26.9392 61.3634 27.116 61.209 27.2388C61.0547 27.3615 60.8512 27.4229 60.5984 27.4229ZM59.7617 29.9513C59.9719 30.0521 60.297 30.1026 60.7369 30.1026C61.0699 30.1026 61.3209 30.0546 61.4898 29.9586C61.6587 29.8626 61.7432 29.7198 61.7432 29.5302C61.7432 29.3892 61.6885 29.2737 61.5791 29.1838C61.4697 29.0939 61.3069 29.0416 61.0906 29.027L60.0843 28.9614C59.9847 28.9566 59.8856 28.9784 59.7872 29.027C59.6887 29.0757 59.6073 29.1431 59.5429 29.2294C59.4785 29.3157 59.4463 29.4111 59.4463 29.5156C59.4463 29.7052 59.5514 29.8504 59.7617 29.9513Z" fill="white"/>
<path fill-rule="evenodd" clip-rule="evenodd" d="M21.5209 50.3249V52.2916H19.5105V50.3239L19.2178 50.2899C18.157 50.1482 17.2459 49.8293 16.4845 49.3333C15.4185 48.6388 14.7917 47.5972 14.6042 46.2083L16.9376 46.0937C17.139 46.8992 17.5591 47.5051 18.198 47.9114C18.8369 48.3176 19.6216 48.5208 20.5522 48.5208C21.1077 48.5208 21.6251 48.4253 22.1042 48.2343C22.5834 48.0433 22.9688 47.7777 23.2605 47.4374C23.5522 47.0972 23.698 46.7013 23.698 46.2499C23.698 45.611 23.5053 45.111 23.1199 44.7499C22.7345 44.3888 22.132 44.1041 21.3126 43.8958L18.7501 43.2499C17.6251 42.9791 16.731 42.5295 16.0678 41.901C15.4046 41.2725 15.0695 40.427 15.0626 39.3645C15.0556 38.4756 15.29 37.6979 15.7657 37.0312C16.2414 36.3645 16.8994 35.8454 17.7397 35.4739L18.0241 35.3569C18.5055 35.1735 19.0234 35.0473 19.5776 34.9785L19.6147 34.9749V32.8749H21.6355V34.9843L21.9439 35.0339C22.4613 35.1316 22.9331 35.2904 23.3595 35.5104C24.1268 35.9062 24.7206 36.4322 25.1407 37.0885C25.5608 37.7447 25.7813 38.4617 25.8022 39.2395L23.5417 39.3333C23.4029 38.4999 23.1025 37.8628 22.6407 37.4218C22.1789 36.9808 21.507 36.7604 20.6251 36.7604C20.2015 36.7604 19.7987 36.8124 19.4167 36.9166C19.0348 37.0208 18.698 37.1736 18.4063 37.3749C18.1147 37.5763 17.8838 37.8246 17.7136 38.1197C17.5435 38.4149 17.4584 38.7534 17.4584 39.1354C17.4584 39.6492 17.6372 40.0555 17.9949 40.3541C18.3525 40.6527 19.0036 40.9409 19.948 41.2187L22.4376 41.8958C23.7362 42.243 24.6667 42.7951 25.2292 43.552C25.7917 44.309 26.073 45.1979 26.073 46.2187C26.073 47.0381 25.8438 47.7604 25.3855 48.3854C24.9272 49.0104 24.2831 49.4982 23.4532 49.8489L23.1716 49.9593C22.6941 50.1325 22.1753 50.2515 21.6152 50.3165L21.5209 50.3249ZM38.5483 48.2291V50.1666H28.1941V48.2395C28.1941 47.4756 28.3382 46.8124 28.6264 46.2499C28.9146 45.6874 29.2948 45.1961 29.767 44.776C30.2392 44.3558 30.7583 43.9826 31.3243 43.6562C31.8903 43.3298 32.4545 43.0173 33.017 42.7187C33.5795 42.4201 34.0969 42.1093 34.5691 41.7864C35.0413 41.4635 35.4215 41.0989 35.7097 40.6926C35.9979 40.2864 36.142 39.809 36.142 39.2604C36.142 38.5381 35.8885 37.9513 35.3816 37.4999C34.8746 37.0486 34.1871 36.8229 33.3191 36.8229C32.3955 36.8229 31.6455 37.0833 31.0691 37.6041C30.4927 38.1249 30.1594 38.8437 30.0691 39.7604H27.8816C27.9024 38.8645 28.1212 38.0486 28.5378 37.3124C28.9545 36.5763 29.5691 35.9895 30.3816 35.552C31.1941 35.1145 32.201 34.8958 33.4024 34.8958C34.4441 34.8958 35.3451 35.0781 36.1055 35.4426C36.866 35.8072 37.4545 36.3159 37.8712 36.9687C38.2878 37.6215 38.4962 38.3819 38.4962 39.2499C38.4962 40.0208 38.3538 40.684 38.0691 41.2395C37.7844 41.7951 37.4111 42.2742 36.9493 42.677C36.4875 43.0798 35.9788 43.4357 35.4233 43.7447C34.8677 44.0538 34.3121 44.3489 33.7566 44.6301C33.201 44.9114 32.6906 45.2065 32.2253 45.5156C31.7601 45.8246 31.3851 46.1736 31.1003 46.5624C30.8156 46.9513 30.6733 47.4201 30.6733 47.9687V48.2291H38.5483ZM41.1335 52.8645L42.9877 49.8437V47.677H40.4044V50.1562L41.3523 50.2187L40.1752 52.8645H41.1335ZM54.0385 49.8593C53.1635 50.217 52.1357 50.3958 50.9552 50.3958C49.7885 50.3958 48.7677 50.217 47.8927 49.8593C47.0177 49.5017 46.3388 48.9982 45.8562 48.3489C45.3736 47.6996 45.1322 46.9374 45.1322 46.0624C45.1322 45.4791 45.2781 44.9218 45.5697 44.3906C45.8614 43.8593 46.2364 43.4097 46.6947 43.0416C47.1531 42.6735 47.6288 42.4409 48.1218 42.3437C47.4552 42.052 46.8996 41.6301 46.4552 41.0781C46.0107 40.526 45.7885 39.8472 45.7885 39.0416C45.7885 38.1527 46.0159 37.401 46.4708 36.7864C46.9256 36.1718 47.5437 35.7031 48.325 35.3801C49.1062 35.0572 49.9829 34.8958 50.9552 34.8958C51.9413 34.8958 52.8232 35.0572 53.601 35.3801C54.3788 35.7031 54.9934 36.1718 55.4447 36.7864C55.8961 37.401 56.1218 38.1527 56.1218 39.0416C56.1218 39.8472 55.9048 40.526 55.4708 41.0781C55.0368 41.6301 54.4795 42.052 53.7989 42.3437C54.2989 42.4409 54.7763 42.6735 55.2312 43.0416C55.6861 43.4097 56.0611 43.8593 56.3562 44.3906C56.6513 44.9218 56.7989 45.4791 56.7989 46.0624C56.7989 46.9374 56.5576 47.6996 56.075 48.3489C55.5923 48.9982 54.9135 49.5017 54.0385 49.8593ZM50.9552 41.427C50.1079 41.427 49.4135 41.2117 48.8718 40.7812C48.3302 40.3506 48.0593 39.7534 48.0593 38.9895C48.0593 38.2256 48.3302 37.6197 48.8718 37.1718C49.4135 36.7239 50.1079 36.4999 50.9552 36.4999C51.8093 36.4999 52.5072 36.7222 53.0489 37.1666C53.5906 37.6111 53.8614 38.2187 53.8614 38.9895C53.8614 39.7534 53.5923 40.3506 53.0541 40.7812C52.5159 41.2117 51.8163 41.427 50.9552 41.427ZM48.4604 47.9218C49.0819 48.3975 49.9135 48.6354 50.9552 48.6354C52.0107 48.6354 52.8493 48.3975 53.4708 47.9218C54.0923 47.4461 54.4031 46.8159 54.4031 46.0312C54.4031 45.5104 54.2625 45.0468 53.9812 44.6406C53.7 44.2343 53.3024 43.9149 52.7885 43.6822C52.2746 43.4496 51.6635 43.3333 50.9552 43.3333C50.2607 43.3333 49.6565 43.4496 49.1427 43.6822C48.6288 43.9149 48.2312 44.2343 47.95 44.6406C47.6687 45.0468 47.5281 45.5104 47.5281 46.0312C47.5281 46.8159 47.8388 47.4461 48.4604 47.9218ZM63.5365 50.1666V35.1041H61.9845C61.9567 35.5138 61.8299 35.8593 61.6042 36.1406C61.3786 36.4218 61.0105 36.6336 60.5001 36.776C59.9897 36.9183 59.29 36.9895 58.4011 36.9895V38.3749H61.2553V50.1666H63.5365ZM76.2084 48.4322C75.2258 49.7413 73.8872 50.3958 72.1928 50.3958C70.4914 50.3958 69.1511 49.7447 68.172 48.4426C67.1928 47.1406 66.7032 45.2222 66.7032 42.6874C66.7032 40.986 66.9289 39.5572 67.3803 38.401C67.8317 37.2447 68.4688 36.3715 69.2917 35.7812C70.1147 35.1909 71.0851 34.8958 72.2032 34.8958C73.8768 34.8958 75.2084 35.5538 76.198 36.8697C77.1876 38.1857 77.6824 40.118 77.6824 42.6666C77.6824 45.2013 77.1911 47.1232 76.2084 48.4322ZM72.2032 48.4999C71.1754 48.4999 70.3959 48.0451 69.8647 47.1354C69.3334 46.2256 69.0678 44.7395 69.0678 42.677C69.0678 40.5798 69.3352 39.0642 69.8699 38.1301C70.4046 37.1961 71.1789 36.7291 72.1928 36.7291C73.2136 36.7291 73.9845 37.1926 74.5053 38.1197C75.0261 39.0468 75.2865 40.5659 75.2865 42.677C75.2865 44.7465 75.0296 46.2343 74.5157 47.1406C74.0018 48.0468 73.231 48.4999 72.2032 48.4999ZM82.019 47.4791V50.1666H79.446V47.4791H82.019ZM89.9213 50.3958C91.0533 50.3958 92.0376 50.184 92.8744 49.7604C93.7112 49.3367 94.3588 48.7395 94.8171 47.9687C95.2755 47.1979 95.5046 46.2881 95.5046 45.2395C95.5046 44.177 95.272 43.2829 94.8067 42.5572C94.3414 41.8315 93.7217 41.2812 92.9473 40.9062C92.173 40.5312 91.3171 40.3437 90.3796 40.3437C89.713 40.3437 89.0949 40.4357 88.5255 40.6197C87.956 40.8038 87.4144 41.1041 86.9005 41.5208L87.2546 36.9895H94.5151L94.588 35.1041H85.4109L84.7234 42.8854L86.5046 43.5312C86.5741 43.5659 86.621 43.5833 86.6453 43.5833C86.6696 43.5833 86.7095 43.5694 86.7651 43.5416C87.1331 43.1666 87.4821 42.8836 87.8119 42.6926C88.1418 42.5017 88.4734 42.3732 88.8067 42.3072C89.1401 42.2413 89.4977 42.2083 89.8796 42.2083C90.4908 42.2083 91.0428 42.3385 91.5359 42.5989C92.0289 42.8593 92.4213 43.2222 92.713 43.6874C93.0046 44.1527 93.1505 44.6944 93.1505 45.3124C93.1505 46.3055 92.838 47.092 92.213 47.6718C91.588 48.2517 90.7651 48.5416 89.7442 48.5416C89.0984 48.5416 88.5255 48.4218 88.0255 48.1822C87.5255 47.9426 87.0914 47.6093 86.7234 47.1822C86.3553 46.7551 86.0463 46.2708 85.7963 45.7291L83.9317 46.6145C84.2095 47.3576 84.6383 48.0121 85.2182 48.5781C85.798 49.144 86.4908 49.5885 87.2963 49.9114C88.1019 50.2343 88.9769 50.3958 89.9213 50.3958ZM106.085 49.7604C105.249 50.184 104.264 50.3958 103.132 50.3958C102.188 50.3958 101.313 50.2343 100.507 49.9114C99.7017 49.5885 99.009 49.144 98.4291 48.5781C97.8493 48.0121 97.4204 47.3576 97.1427 46.6145L99.0072 45.7291C99.2572 46.2708 99.5663 46.7551 99.9343 47.1822C100.302 47.6093 100.736 47.9426 101.236 48.1822C101.736 48.4218 102.309 48.5416 102.955 48.5416C103.976 48.5416 104.799 48.2517 105.424 47.6718C106.049 47.092 106.361 46.3055 106.361 45.3124C106.361 44.6944 106.216 44.1527 105.924 43.6874C105.632 43.2222 105.24 42.8593 104.747 42.5989C104.254 42.3385 103.702 42.2083 103.091 42.2083C102.709 42.2083 102.351 42.2413 102.018 42.3072C101.684 42.3732 101.353 42.5017 101.023 42.6926C100.693 42.8836 100.344 43.1666 99.976 43.5416C99.9204 43.5694 99.8805 43.5833 99.8562 43.5833C99.8319 43.5833 99.785 43.5659 99.7156 43.5312L97.9343 42.8854L98.6218 35.1041H107.799L107.726 36.9895H100.466L100.111 41.5208C100.625 41.1041 101.167 40.8038 101.736 40.6197C102.306 40.4357 102.924 40.3437 103.591 40.3437C104.528 40.3437 105.384 40.5312 106.158 40.9062C106.933 41.2812 107.552 41.8315 108.018 42.5572C108.483 43.2829 108.716 44.177 108.716 45.2395C108.716 46.2881 108.486 47.1979 108.028 47.9687C107.57 48.7395 106.922 49.3367 106.085 49.7604Z" fill="white"/>
<defs>
<linearGradient id="paint0_linear_0_462" x1="-88.5116" y1="33.3601" x2="-45.1157" y2="149.987" gradientUnits="userSpaceOnUse">
<stop stop-color="#33D35E"/>
<stop offset="1" stop-color="#2AB6D9"/>
</linearGradient>
</defs>
</svg>
