<svg width="180" height="51" viewBox="0 0 180 51" fill="none" xmlns="http://www.w3.org/2000/svg">
<rect x="0.695801" y="0.166626" width="179.167" height="50" rx="4" fill="white"/>
<path fill-rule="evenodd" clip-rule="evenodd" d="M54.5406 16.4302V18.9166H53.7604V13.4989H54.5297V15.6973C54.5904 15.5977 54.6725 15.5029 54.7758 15.413C54.8791 15.323 55.0055 15.2495 55.1549 15.1924C55.3044 15.1353 55.4788 15.1067 55.6781 15.1067C55.9236 15.1067 56.1454 15.1523 56.3435 15.2434C56.5416 15.3346 56.6995 15.4658 56.8174 15.6372C56.9353 15.8085 56.9943 16.0121 56.9943 16.2479V18.9166H56.214V16.39C56.214 16.1786 56.1411 16.0157 55.9953 15.9015C55.8495 15.7873 55.6623 15.7302 55.4338 15.7302C55.2807 15.7302 55.1355 15.7563 54.9982 15.8085C54.8608 15.8608 54.7502 15.9386 54.6664 16.0419C54.5825 16.1452 54.5406 16.2746 54.5406 16.4302ZM46.4902 18.2385V18.9166H42.8662V18.2421C42.8662 17.9748 42.9166 17.7427 43.0175 17.5458C43.1184 17.3489 43.2514 17.1769 43.4167 17.0299C43.582 16.8828 43.7637 16.7522 43.9618 16.638C44.1599 16.5237 44.3573 16.4144 44.5542 16.3098C44.7511 16.2053 44.9322 16.0966 45.0974 15.9835C45.2627 15.8705 45.3958 15.7429 45.4967 15.6007C45.5975 15.4585 45.648 15.2914 45.648 15.0994C45.648 14.8466 45.5592 14.6413 45.3818 14.4833C45.2044 14.3253 44.9638 14.2463 44.6599 14.2463C44.3367 14.2463 44.0742 14.3374 43.8724 14.5197C43.6707 14.702 43.554 14.9536 43.5224 15.2744H42.7568C42.7641 14.9609 42.8407 14.6753 42.9865 14.4177C43.1323 14.16 43.3474 13.9546 43.6318 13.8015C43.9162 13.6484 44.2686 13.5718 44.6891 13.5718C45.0537 13.5718 45.3691 13.6356 45.6352 13.7632C45.9013 13.8908 46.1073 14.0689 46.2532 14.2973C46.399 14.5258 46.4719 14.792 46.4719 15.0958C46.4719 15.3656 46.4221 15.5977 46.3224 15.7921C46.2228 15.9866 46.0921 16.1543 45.9305 16.2953C45.7689 16.4362 45.5908 16.5608 45.3964 16.669C45.202 16.7771 45.0075 16.8804 44.8131 16.9788C44.6186 17.0773 44.44 17.1806 44.2771 17.2887C44.1143 17.3969 43.983 17.519 43.8834 17.6552C43.7837 17.7913 43.7339 17.9553 43.7339 18.1473V18.2385H46.4902ZM14.9881 17.5348L14.4813 18.9166H13.6902L15.5933 13.6447H16.4537L18.3532 18.9166H17.5657L17.0699 17.5348H14.9881ZM15.174 16.8275H16.8694L16.0272 14.4104L15.174 16.8275ZM20.471 18.9895C20.7481 18.9895 20.9966 18.9361 21.2166 18.8291C21.4365 18.7222 21.6152 18.5727 21.7525 18.3807C21.8898 18.1887 21.9718 17.9663 21.9986 17.7135H21.335C21.3156 17.8277 21.2706 17.9383 21.2001 18.0453C21.1297 18.1522 21.0343 18.2397 20.9139 18.3078C20.7936 18.3758 20.6521 18.4098 20.4892 18.4098C20.1514 18.4098 19.8943 18.2859 19.7181 18.038C19.5419 17.79 19.4538 17.4571 19.4538 17.039C19.4538 16.5821 19.5486 16.243 19.7382 16.0218C19.9278 15.8006 20.1732 15.69 20.4746 15.69C20.6399 15.69 20.7827 15.7223 20.903 15.7867C21.0233 15.8511 21.1193 15.9367 21.191 16.0437C21.2627 16.1506 21.3095 16.2661 21.3314 16.39H22.0059C21.9767 16.1275 21.8941 15.8979 21.758 15.701C21.6218 15.5041 21.4438 15.3504 21.2238 15.2398C21.0039 15.1292 20.7529 15.0739 20.471 15.0739C20.104 15.0739 19.7886 15.1565 19.5249 15.3218C19.2612 15.4871 19.06 15.718 18.9215 16.0145C18.783 16.3111 18.7137 16.655 18.7137 17.0463C18.7137 17.4619 18.7884 17.815 18.9379 18.1054C19.0874 18.3959 19.2946 18.6158 19.5595 18.7653C19.8245 18.9148 20.1283 18.9895 20.471 18.9895ZM25.0381 18.8291C24.8181 18.9361 24.5696 18.9895 24.2925 18.9895C23.9498 18.9895 23.646 18.9148 23.381 18.7653C23.1161 18.6158 22.9089 18.3959 22.7594 18.1054C22.6099 17.815 22.5352 17.4619 22.5352 17.0463C22.5352 16.655 22.6045 16.3111 22.743 16.0145C22.8816 15.718 23.0827 15.4871 23.3464 15.3218C23.6101 15.1565 23.9255 15.0739 24.2925 15.0739C24.5744 15.0739 24.8254 15.1292 25.0454 15.2398C25.2653 15.3504 25.4434 15.5041 25.5795 15.701C25.7156 15.8979 25.7982 16.1275 25.8274 16.39H25.1529C25.131 16.2661 25.0843 16.1506 25.0125 16.0437C24.9408 15.9367 24.8448 15.8511 24.7245 15.7867C24.6042 15.7223 24.4614 15.69 24.2961 15.69C23.9948 15.69 23.7493 15.8006 23.5597 16.0218C23.3701 16.243 23.2753 16.5821 23.2753 17.039C23.2753 17.4571 23.3634 17.79 23.5396 18.038C23.7158 18.2859 23.9729 18.4098 24.3107 18.4098C24.4736 18.4098 24.6152 18.3758 24.7355 18.3078C24.8558 18.2397 24.9512 18.1522 25.0217 18.0453C25.0921 17.9383 25.1371 17.8277 25.1566 17.7135H25.8201C25.7934 17.9663 25.7113 18.1887 25.574 18.3807C25.4367 18.5727 25.258 18.7222 25.0381 18.8291ZM28.1104 18.9895C28.4871 18.9895 28.8049 18.9075 29.0638 18.7434C29.3226 18.5794 29.5195 18.3515 29.6544 18.0598C29.7893 17.7682 29.8567 17.4315 29.8567 17.0499C29.8567 16.6319 29.785 16.2752 29.6416 15.9799C29.4982 15.6846 29.2965 15.4598 29.0364 15.3054C28.7763 15.1511 28.4689 15.0739 28.114 15.0739C27.7421 15.0739 27.425 15.1559 27.1625 15.32C26.9 15.4841 26.7 15.7144 26.5627 16.0109C26.4254 16.3074 26.3567 16.6538 26.3567 17.0499C26.3567 17.4607 26.429 17.8107 26.5736 18.0999C26.7183 18.3892 26.9224 18.6098 27.1861 18.7617C27.4499 18.9136 27.7579 18.9895 28.1104 18.9895ZM27.5416 18.202C27.6875 18.326 27.8783 18.388 28.114 18.388C28.3279 18.388 28.5072 18.3315 28.6518 18.2184C28.7964 18.1054 28.9052 17.9462 28.9781 17.7408C29.051 17.5354 29.0875 17.2979 29.0875 17.0281C29.0875 16.7777 29.0552 16.5499 28.9908 16.3445C28.9264 16.1391 28.8225 15.9756 28.6791 15.8541C28.5357 15.7326 28.3473 15.6718 28.114 15.6718C27.8953 15.6718 27.713 15.7271 27.5671 15.8377C27.4213 15.9483 27.3113 16.1051 27.2372 16.308C27.1631 16.511 27.126 16.751 27.126 17.0281C27.126 17.2736 27.1588 17.4996 27.2244 17.7062C27.2901 17.9128 27.3958 18.0781 27.5416 18.202ZM31.9029 18.9895C32.0755 18.992 32.239 18.967 32.3933 18.9148C32.5477 18.8625 32.6813 18.7775 32.7944 18.6596C32.9074 18.5417 32.9858 18.3843 33.0295 18.1874L33.117 18.9166H33.7222V15.1468H32.9457V17.6005C32.9457 17.8605 32.8679 18.058 32.7123 18.1929C32.5568 18.3278 32.3502 18.3953 32.0925 18.3953C31.8082 18.3953 31.5955 18.3248 31.4545 18.1838C31.3135 18.0428 31.243 17.8593 31.243 17.6333V15.1468H30.4592V17.7171C30.4592 17.9262 30.4987 18.1097 30.5777 18.2677C30.6567 18.4256 30.7636 18.5581 30.8985 18.665C31.0334 18.772 31.1871 18.8522 31.3597 18.9057C31.5323 18.9591 31.7134 18.9871 31.9029 18.9895ZM35.4296 16.4265V18.9166H34.6494V15.1468H35.4114V15.69C35.4721 15.588 35.5542 15.492 35.6575 15.402C35.7608 15.3121 35.8884 15.2392 36.0403 15.1833C36.1922 15.1274 36.3678 15.0994 36.5671 15.0994C36.8029 15.0994 37.021 15.1462 37.2215 15.2398C37.4221 15.3334 37.5831 15.4792 37.7046 15.6773C37.8261 15.8754 37.8869 16.1312 37.8869 16.4447V18.9166H37.1067V16.5286C37.1067 16.2588 37.0344 16.0583 36.8898 15.927C36.7451 15.7958 36.5586 15.7302 36.3301 15.7302C36.177 15.7302 36.0312 15.7557 35.8926 15.8067C35.7541 15.8578 35.6423 15.9349 35.5572 16.0382C35.4721 16.1415 35.4296 16.271 35.4296 16.4265ZM40.0541 18.9421C40.2048 18.9421 40.3282 18.9348 40.4242 18.9203C40.5202 18.9057 40.5925 18.8887 40.6411 18.8692V18.3624H40.2C40.093 18.3624 40.0085 18.3545 39.9466 18.3387C39.8846 18.3229 39.8408 18.2865 39.8153 18.2294C39.7898 18.1723 39.777 18.0817 39.777 17.9578L39.7734 15.7083H40.6192V15.1432H39.7734V14.0385H39.2083L39.0151 15.1468H38.3807V15.7083H38.9932V17.9869C38.9932 18.1887 39.023 18.3606 39.0825 18.5028C39.1421 18.645 39.249 18.7538 39.4033 18.8291C39.5577 18.9045 39.7746 18.9421 40.0541 18.9421ZM50.9276 18.9895C51.2581 18.9895 51.5449 18.9415 51.788 18.8455C52.0311 18.7495 52.2346 18.6177 52.3987 18.4499C52.5627 18.2822 52.691 18.092 52.7833 17.8794C52.8757 17.6667 52.9364 17.4449 52.9656 17.214H52.1344C52.0979 17.4133 52.028 17.5974 51.9247 17.7663C51.8214 17.9353 51.6847 18.0702 51.5146 18.171C51.3444 18.2719 51.1427 18.3223 50.9094 18.3223C50.4573 18.3223 50.1109 18.1577 49.8703 17.8283C49.6297 17.499 49.5094 16.9782 49.5094 16.2661C49.5094 15.7946 49.5634 15.4093 49.6716 15.1104C49.7798 14.8114 49.9384 14.5914 50.1474 14.4505C50.3564 14.3095 50.6104 14.239 50.9094 14.239C51.1427 14.239 51.3444 14.2858 51.5146 14.3794C51.6847 14.4729 51.8214 14.6006 51.9247 14.7622C52.028 14.9238 52.0979 15.1043 52.1344 15.3036H52.9656C52.9316 14.9852 52.8252 14.6947 52.6466 14.4322C52.468 14.1697 52.2316 13.9607 51.9375 13.8052C51.6434 13.6496 51.3068 13.5718 50.9276 13.5718C50.4488 13.5718 50.0392 13.6775 49.6989 13.889C49.3587 14.1005 49.0986 14.4061 48.9187 14.8059C48.7389 15.2058 48.6489 15.6888 48.6489 16.2552C48.6489 16.8239 48.7395 17.3118 48.9206 17.719C49.1016 18.1261 49.3623 18.4396 49.7026 18.6596C50.0429 18.8795 50.4512 18.9895 50.9276 18.9895ZM59.4973 18.9895C59.7477 18.9895 59.9871 18.944 60.2156 18.8528C60.444 18.7617 60.6391 18.6262 60.8007 18.4463C60.9624 18.2664 61.0651 18.0477 61.1088 17.79H60.3869C60.3359 17.9918 60.2283 18.1437 60.0643 18.2458C59.9002 18.3479 59.7064 18.3989 59.4828 18.3989C59.2592 18.3989 59.072 18.3473 58.9213 18.244C58.7706 18.1407 58.6582 17.9997 58.5841 17.821C58.5099 17.6424 58.4729 17.44 58.4729 17.214H61.127V16.9552C61.127 16.5736 61.0626 16.2424 60.9338 15.9617C60.805 15.6809 60.616 15.4628 60.3669 15.3072C60.1177 15.1517 59.8109 15.0739 59.4463 15.0739C59.0769 15.0739 58.7609 15.159 58.4984 15.3291C58.2359 15.4992 58.0354 15.7344 57.8968 16.0346C57.7583 16.3348 57.689 16.6805 57.689 17.0718C57.689 17.468 57.765 17.8095 57.9169 18.0963C58.0688 18.3831 58.2809 18.6037 58.5531 18.758C58.8253 18.9124 59.1401 18.9895 59.4973 18.9895ZM58.4729 16.7072H60.3833C60.3833 16.5104 60.3493 16.3311 60.2812 16.1695C60.2131 16.0078 60.1092 15.8802 59.9695 15.7867C59.8297 15.6931 59.6541 15.6463 59.4427 15.6463C59.2263 15.6463 59.0465 15.6986 58.9031 15.8031C58.7597 15.9076 58.6521 16.0413 58.5804 16.2041C58.5087 16.367 58.4729 16.5347 58.4729 16.7072ZM63.4189 18.9895C63.696 18.9895 63.9445 18.9361 64.1645 18.8291C64.3844 18.7222 64.5631 18.5727 64.7004 18.3807C64.8377 18.1887 64.9198 17.9663 64.9465 17.7135H64.283C64.2635 17.8277 64.2186 17.9383 64.1481 18.0453C64.0776 18.1522 63.9822 18.2397 63.8619 18.3078C63.7416 18.3758 63.6 18.4098 63.4371 18.4098C63.0993 18.4098 62.8422 18.2859 62.666 18.038C62.4898 17.79 62.4017 17.4571 62.4017 17.039C62.4017 16.5821 62.4965 16.243 62.6861 16.0218C62.8757 15.8006 63.1212 15.69 63.4225 15.69C63.5878 15.69 63.7306 15.7223 63.8509 15.7867C63.9712 15.8511 64.0672 15.9367 64.139 16.0437C64.2107 16.1506 64.2574 16.2661 64.2793 16.39H64.9538C64.9246 16.1275 64.842 15.8979 64.7059 15.701C64.5698 15.5041 64.3917 15.3504 64.1718 15.2398C63.9518 15.1292 63.7008 15.0739 63.4189 15.0739C63.0519 15.0739 62.7365 15.1565 62.4728 15.3218C62.2091 15.4871 62.008 15.718 61.8694 16.0145C61.7309 16.3111 61.6616 16.655 61.6616 17.0463C61.6616 17.4619 61.7363 17.815 61.8858 18.1054C62.0353 18.3959 62.2425 18.6158 62.5074 18.7653C62.7724 18.9148 63.0762 18.9895 63.4189 18.9895ZM66.4857 17.801V18.9166H65.7055V13.4989H66.4857V16.9442L68.1519 15.1468H69.0269L67.6633 16.6015L69.1071 18.9166H68.2977L67.1638 17.0973L66.4857 17.801ZM70.5766 14.4177V13.6484H69.7927V14.4177H70.5766ZM70.562 15.1468V18.9166H69.811V15.1468H70.562ZM72.3924 18.9166V16.4265C72.3924 16.271 72.435 16.1415 72.52 16.0382C72.6051 15.9349 72.7169 15.8578 72.8555 15.8067C72.994 15.7557 73.1398 15.7302 73.293 15.7302C73.5214 15.7302 73.708 15.7958 73.8526 15.927C73.9972 16.0583 74.0695 16.2588 74.0695 16.5286V18.9166H74.8497V16.4447C74.8497 16.1312 74.789 15.8754 74.6674 15.6773C74.5459 15.4792 74.3849 15.3334 74.1844 15.2398C73.9838 15.1462 73.7657 15.0994 73.5299 15.0994C73.3306 15.0994 73.155 15.1274 73.0031 15.1833C72.8512 15.2392 72.7236 15.3121 72.6203 15.402C72.517 15.492 72.435 15.588 72.3742 15.69V15.1468H71.6122V18.9166H72.3924ZM78.7998 19.8335C78.4862 20.0535 78.0098 20.1635 77.3706 20.1635C76.7581 20.1635 76.2841 20.0778 75.9487 19.9065C75.6133 19.7351 75.4456 19.4963 75.4456 19.19C75.4456 19.0564 75.4778 18.9427 75.5422 18.8492C75.6066 18.7556 75.6832 18.6784 75.7719 18.6177C75.8606 18.5569 75.9426 18.5089 76.018 18.4736C76.0933 18.4384 76.1419 18.4135 76.1638 18.3989L76.0052 18.3059C75.9408 18.2683 75.8831 18.2172 75.8321 18.1528C75.781 18.0884 75.7555 18.0039 75.7555 17.8994C75.7555 17.7779 75.8132 17.6655 75.9287 17.5622C76.0441 17.4589 76.2173 17.3829 76.4482 17.3343C76.2197 17.2225 76.0429 17.0718 75.9177 16.8822C75.7926 16.6927 75.73 16.4909 75.73 16.277C75.73 16.0315 75.7992 15.8195 75.9378 15.6408C76.0763 15.4622 76.2714 15.3255 76.5229 15.2307C76.7745 15.1359 77.0704 15.0885 77.4107 15.0885C77.6586 15.0885 77.8664 15.1164 78.0341 15.1723C78.2018 15.2282 78.3562 15.306 78.4972 15.4057C78.5433 15.3887 78.609 15.3625 78.694 15.3273C78.7791 15.292 78.8733 15.2538 78.9766 15.2124C79.0799 15.1711 79.1783 15.131 79.2719 15.0921L79.4998 14.9973L79.4961 15.6755L78.8399 15.7958C78.8739 15.8687 78.9012 15.9489 78.9219 16.0364C78.9426 16.1239 78.9529 16.2041 78.9529 16.277C78.9529 16.4958 78.8933 16.6969 78.7742 16.8804C78.6551 17.0639 78.4765 17.2104 78.2383 17.3197C78.0001 17.4291 77.7024 17.4838 77.3451 17.4838C77.311 17.4838 77.2673 17.4832 77.2138 17.482C77.1603 17.4808 77.1154 17.4777 77.0789 17.4729C76.8529 17.4802 76.6973 17.5063 76.6123 17.5512C76.5272 17.5962 76.4847 17.6454 76.4847 17.6989C76.4847 17.767 76.5393 17.8131 76.6487 17.8374C76.7581 17.8617 76.938 17.8824 77.1883 17.8994C77.2782 17.9067 77.3931 17.914 77.5328 17.9213C77.6726 17.9286 77.8275 17.9383 77.9977 17.9505C78.4109 17.9748 78.7262 18.0781 78.9438 18.2604C79.1613 18.4427 79.2701 18.6845 79.2701 18.9859C79.2701 19.331 79.1133 19.6136 78.7998 19.8335ZM77.3669 17.0062C77.0971 17.0062 76.8875 16.943 76.738 16.8166C76.5886 16.6902 76.5138 16.5152 76.5138 16.2916C76.5138 16.0558 76.5922 15.8723 76.749 15.7411C76.9057 15.6098 77.1117 15.5442 77.3669 15.5442C77.6197 15.5442 77.8233 15.6092 77.9776 15.7393C78.132 15.8693 78.2091 16.0534 78.2091 16.2916C78.2091 16.5225 78.132 16.6993 77.9776 16.8221C77.8233 16.9448 77.6197 17.0062 77.3669 17.0062ZM76.5302 19.5346C76.7405 19.6354 77.0656 19.6859 77.5055 19.6859C77.8385 19.6859 78.0894 19.6379 78.2583 19.5419C78.4273 19.4459 78.5117 19.3031 78.5117 19.1135C78.5117 18.9725 78.457 18.8571 78.3477 18.7671C78.2383 18.6772 78.0754 18.6249 77.8591 18.6104L76.8529 18.5447C76.7532 18.5399 76.6542 18.5617 76.5557 18.6104C76.4573 18.659 76.3759 18.7264 76.3115 18.8127C76.2471 18.899 76.2149 18.9944 76.2149 19.0989C76.2149 19.2885 76.32 19.4337 76.5302 19.5346Z" fill="#9597A5"/>
<path fill-rule="evenodd" clip-rule="evenodd" d="M18.6844 36.9645L18.6834 35.6874L18.9306 35.6559C19.2043 35.614 19.4621 35.5512 19.7039 35.4675L19.9404 35.3768C20.4798 35.1488 20.8985 34.8317 21.1964 34.4255C21.4943 34.0192 21.6433 33.5498 21.6433 33.0171C21.6433 32.3536 21.4605 31.7758 21.0948 31.2838C20.7292 30.7918 20.1244 30.4329 19.2803 30.2072L17.662 29.7671C17.0481 29.5866 16.625 29.3992 16.3925 29.2051C16.16 29.0111 16.0438 28.747 16.0438 28.413C16.0438 28.1647 16.0991 27.9446 16.2097 27.7528C16.3203 27.561 16.4704 27.3996 16.66 27.2687C16.8495 27.1378 17.0685 27.0385 17.3167 26.9708C17.565 26.9031 17.8268 26.8692 18.1021 26.8692C18.6754 26.8692 19.1121 27.0125 19.4123 27.2992C19.7125 27.5858 19.9077 27.9999 19.998 28.5416L21.4672 28.4807C21.4537 27.9751 21.3104 27.5091 21.0373 27.0825C20.7642 26.6559 20.3783 26.314 19.8795 26.0567C19.5677 25.8959 19.2185 25.7853 18.8319 25.725L18.7584 25.7166L18.7589 24.3437H17.4454L17.4448 25.7104L17.2381 25.7373C16.9664 25.7817 16.7089 25.8482 16.4654 25.9369L16.2266 26.033C15.6804 26.2745 15.2527 26.6119 14.9435 27.0453C14.6343 27.4786 14.482 27.9841 14.4865 28.5619C14.491 29.2525 14.7088 29.8021 15.1399 30.2106C15.571 30.6191 16.1521 30.9114 16.8834 31.0874L18.549 31.5072C19.0817 31.6426 19.4732 31.8277 19.7238 32.0624C19.9743 32.2972 20.0995 32.6222 20.0995 33.0374C20.0995 33.3308 20.0047 33.5881 19.8152 33.8093C19.6256 34.0305 19.3751 34.2032 19.0636 34.3273C18.7521 34.4514 18.4159 34.5135 18.0547 34.5135C17.4499 34.5135 16.9398 34.3814 16.5245 34.1174C16.1093 33.8533 15.8362 33.4595 15.7053 32.9359L14.1886 33.0104C14.3105 33.9131 14.7179 34.5902 15.4107 35.0416C15.8958 35.3576 16.4742 35.563 17.1461 35.6578L17.3771 35.6843L17.3777 36.9645H18.6844ZM26.1569 35.5833V25.7926H25.148C25.13 26.059 25.0476 26.2835 24.9009 26.4663C24.7542 26.6492 24.515 26.7868 24.1832 26.8794C23.8514 26.9719 23.3967 27.0182 22.8189 27.0182V27.9187H24.6741V35.5833H26.1569ZM30.0095 35.3734L28.8043 37.3369H28.1814L28.9465 35.6171L28.3303 35.5765V33.965H30.0095V35.3734ZM34.7685 35.7322C35.6036 35.7322 36.3157 35.5314 36.9047 35.1296C37.4938 34.7279 37.9418 34.14 38.2488 33.3658C38.5557 32.5917 38.7092 31.6449 38.7092 30.5255C38.7092 29.5189 38.5557 28.6522 38.2488 27.9255C37.9418 27.1987 37.504 26.639 36.9352 26.2463C36.3665 25.8536 35.6939 25.6572 34.9175 25.6572C34.2088 25.6572 33.5961 25.7994 33.0792 26.0838C32.5624 26.3682 32.1629 26.7609 31.8808 27.2619C31.5987 27.763 31.4576 28.3385 31.4576 28.9885C31.4576 29.6385 31.5975 30.1971 31.8774 30.6643C32.1573 31.1314 32.5455 31.4914 33.042 31.7442C33.5385 31.997 34.1118 32.1234 34.7618 32.1234C35.1635 32.1234 35.5291 32.0557 35.8587 31.9203C36.1882 31.7848 36.4725 31.5986 36.7118 31.3617C36.951 31.1247 37.1293 30.8482 37.2467 30.5322C37.2963 31.4666 37.223 32.2295 37.0266 32.8208C36.8303 33.4121 36.5335 33.8477 36.1363 34.1275C35.739 34.4074 35.2673 34.5473 34.7211 34.5473C34.2337 34.5473 33.8218 34.4142 33.4855 34.1479C33.1492 33.8815 32.9291 33.534 32.8253 33.1051H31.4305C31.4937 33.6468 31.6844 34.1129 32.0027 34.5033C32.3209 34.8938 32.7215 35.1962 33.2045 35.4106C33.6875 35.625 34.2088 35.7322 34.7685 35.7322ZM33.5227 30.3833C33.8567 30.7399 34.333 30.9182 34.9514 30.9182C35.2899 30.9182 35.6126 30.8414 35.9196 30.688C36.2265 30.5345 36.4782 30.3302 36.6745 30.0752C36.8709 29.8202 36.9691 29.5459 36.9691 29.2525C36.9736 28.765 36.8912 28.3385 36.7219 27.9729C36.5527 27.6072 36.3157 27.3217 36.011 27.1163C35.7063 26.911 35.3486 26.8083 34.9378 26.8083C34.5677 26.8083 34.2382 26.8974 33.9493 27.0757C33.6604 27.254 33.4336 27.5023 33.2688 27.8205C33.104 28.1387 33.0217 28.5055 33.0217 28.9208C33.0217 29.5392 33.1887 30.0267 33.5227 30.3833ZM43.0916 25.7926H42.0827C42.0647 26.059 41.9823 26.2835 41.8356 26.4663C41.6889 26.6492 41.4497 26.7868 41.1179 26.8794C40.7861 26.9719 40.3314 27.0182 39.7536 27.0182V27.9187H41.6088V35.5833H43.0916V25.7926ZM47.4588 25.7926H48.4676V35.5833H46.9848V27.9187H45.1296V27.0182C45.7074 27.0182 46.1622 26.9719 46.4939 26.8794C46.8257 26.7868 47.0649 26.6492 47.2116 26.4663C47.3583 26.2835 47.4407 26.059 47.4588 25.7926ZM52.2864 35.5833V33.8364H50.614V35.5833H52.2864ZM59.4271 33.1729V35.5833H58.0187V33.1729H53.4349V31.8999L57.9713 25.7926H59.4271V31.9203H61.0182V33.1729H59.4271ZM57.9984 31.9203H54.8026L57.9984 27.6343V31.9203ZM64.1641 25.7926H65.173V35.5833H63.6902V27.9187H61.835V27.0182C62.4127 27.0182 62.8675 26.9719 63.1993 26.8794C63.531 26.7868 63.7703 26.6492 63.917 26.4663C64.0637 26.2835 64.1461 26.059 64.1641 25.7926Z" fill="#2D314D"/>
</svg>
