<svg width="180" height="51" viewBox="0 0 180 51" fill="none" xmlns="http://www.w3.org/2000/svg">
<rect x="0.695801" y="0.499939" width="179.167" height="50" rx="4" fill="white"/>
<path fill-rule="evenodd" clip-rule="evenodd" d="M53.1253 16.7635V19.2499H52.3451V13.8322H53.1144V16.0307C53.1752 15.931 53.2572 15.8362 53.3605 15.7463C53.4638 15.6563 53.5902 15.5828 53.7397 15.5257C53.8891 15.4686 54.0635 15.44 54.2628 15.44C54.5083 15.44 54.7301 15.4856 54.9282 15.5767C55.1263 15.6679 55.2843 15.7991 55.4022 15.9705C55.52 16.1418 55.579 16.3454 55.579 16.5812V19.2499H54.7988V16.7234C54.7988 16.5119 54.7259 16.3491 54.58 16.2348C54.4342 16.1206 54.247 16.0635 54.0186 16.0635C53.8654 16.0635 53.7202 16.0896 53.5829 16.1418C53.4456 16.1941 53.335 16.2719 53.2511 16.3752C53.1673 16.4785 53.1253 16.6079 53.1253 16.7635ZM49.5123 19.3228C49.8429 19.3228 50.1297 19.2748 50.3727 19.1788C50.6158 19.0828 50.8194 18.951 50.9834 18.7833C51.1475 18.6155 51.2757 18.4254 51.3681 18.2127C51.4604 18 51.5212 17.7782 51.5503 17.5473H50.7191C50.6826 17.7466 50.6128 17.9307 50.5095 18.0997C50.4062 18.2686 50.2694 18.4035 50.0993 18.5043C49.9292 18.6052 49.7274 18.6557 49.4941 18.6557C49.042 18.6557 48.6957 18.491 48.455 18.1616C48.2144 17.8323 48.0941 17.3116 48.0941 16.5994C48.0941 16.1279 48.1482 15.7426 48.2563 15.4437C48.3645 15.1447 48.5231 14.9247 48.7321 14.7838C48.9411 14.6428 49.1951 14.5723 49.4941 14.5723C49.7274 14.5723 49.9292 14.6191 50.0993 14.7127C50.2694 14.8063 50.4062 14.9339 50.5095 15.0955C50.6128 15.2571 50.6826 15.4376 50.7191 15.6369H51.5503C51.5163 15.3185 51.41 15.028 51.2313 14.7655C51.0527 14.503 50.8163 14.294 50.5222 14.1385C50.2281 13.9829 49.8915 13.9051 49.5123 13.9051C49.0335 13.9051 48.624 14.0109 48.2837 14.2223C47.9434 14.4338 47.6833 14.7394 47.5035 15.1392C47.3236 15.5391 47.2337 16.0221 47.2337 16.5885C47.2337 17.1572 47.3242 17.6451 47.5053 18.0523C47.6864 18.4594 47.947 18.7729 48.2873 18.9929C48.6276 19.2129 49.0359 19.3228 49.5123 19.3228ZM14.9881 17.8682L14.4813 19.2499H13.6902L15.5933 13.978H16.4537L18.3532 19.2499H17.5657L17.0699 17.8682H14.9881ZM15.174 17.1609H16.8694L16.0272 14.7437L15.174 17.1609ZM20.471 19.3228C20.7481 19.3228 20.9966 19.2694 21.2166 19.1624C21.4365 19.0555 21.6152 18.906 21.7525 18.714C21.8898 18.522 21.9718 18.2996 21.9986 18.0468H21.335C21.3156 18.161 21.2706 18.2716 21.2001 18.3786C21.1297 18.4855 21.0343 18.573 20.9139 18.6411C20.7936 18.7091 20.6521 18.7432 20.4892 18.7432C20.1514 18.7432 19.8943 18.6192 19.7181 18.3713C19.5419 18.1234 19.4538 17.7904 19.4538 17.3723C19.4538 16.9154 19.5486 16.5763 19.7382 16.3551C19.9278 16.134 20.1732 16.0234 20.4746 16.0234C20.6399 16.0234 20.7827 16.0556 20.903 16.12C21.0233 16.1844 21.1193 16.2701 21.191 16.377C21.2627 16.484 21.3095 16.5994 21.3314 16.7234H22.0059C21.9767 16.4609 21.8941 16.2312 21.758 16.0343C21.6218 15.8374 21.4438 15.6837 21.2238 15.5731C21.0039 15.4625 20.7529 15.4072 20.471 15.4072C20.104 15.4072 19.7886 15.4899 19.5249 15.6551C19.2612 15.8204 19.06 16.0513 18.9215 16.3478C18.783 16.6444 18.7137 16.9883 18.7137 17.3796C18.7137 17.7952 18.7884 18.1483 18.9379 18.4387C19.0874 18.7292 19.2946 18.9491 19.5595 19.0986C19.8245 19.2481 20.1283 19.3228 20.471 19.3228ZM25.0381 19.1624C24.8181 19.2694 24.5696 19.3228 24.2925 19.3228C23.9498 19.3228 23.646 19.2481 23.381 19.0986C23.1161 18.9491 22.9089 18.7292 22.7594 18.4387C22.6099 18.1483 22.5352 17.7952 22.5352 17.3796C22.5352 16.9883 22.6045 16.6444 22.743 16.3478C22.8816 16.0513 23.0827 15.8204 23.3464 15.6551C23.6101 15.4899 23.9255 15.4072 24.2925 15.4072C24.5744 15.4072 24.8254 15.4625 25.0454 15.5731C25.2653 15.6837 25.4434 15.8374 25.5795 16.0343C25.7156 16.2312 25.7982 16.4609 25.8274 16.7234H25.1529C25.131 16.5994 25.0843 16.484 25.0125 16.377C24.9408 16.2701 24.8448 16.1844 24.7245 16.12C24.6042 16.0556 24.4614 16.0234 24.2961 16.0234C23.9948 16.0234 23.7493 16.134 23.5597 16.3551C23.3701 16.5763 23.2753 16.9154 23.2753 17.3723C23.2753 17.7904 23.3634 18.1234 23.5396 18.3713C23.7158 18.6192 23.9729 18.7432 24.3107 18.7432C24.4736 18.7432 24.6152 18.7091 24.7355 18.6411C24.8558 18.573 24.9512 18.4855 25.0217 18.3786C25.0921 18.2716 25.1371 18.161 25.1566 18.0468H25.8201C25.7934 18.2996 25.7113 18.522 25.574 18.714C25.4367 18.906 25.258 19.0555 25.0381 19.1624ZM28.1104 19.3228C28.4871 19.3228 28.8049 19.2408 29.0638 19.0767C29.3226 18.9127 29.5195 18.6848 29.6544 18.3932C29.7893 18.1015 29.8567 17.7649 29.8567 17.3833C29.8567 16.9652 29.785 16.6085 29.6416 16.3132C29.4982 16.0179 29.2965 15.7931 29.0364 15.6387C28.7763 15.4844 28.4689 15.4072 28.114 15.4072C27.7421 15.4072 27.425 15.4892 27.1625 15.6533C26.9 15.8174 26.7 16.0477 26.5627 16.3442C26.4254 16.6407 26.3567 16.9871 26.3567 17.3833C26.3567 17.794 26.429 18.144 26.5736 18.4333C26.7183 18.7225 26.9224 18.9431 27.1861 19.095C27.4499 19.2469 27.7579 19.3228 28.1104 19.3228ZM27.5416 18.5353C27.6875 18.6593 27.8783 18.7213 28.114 18.7213C28.3279 18.7213 28.5072 18.6648 28.6518 18.5517C28.7964 18.4387 28.9052 18.2795 28.9781 18.0741C29.051 17.8688 29.0875 17.6312 29.0875 17.3614C29.0875 17.111 29.0552 16.8832 28.9908 16.6778C28.9264 16.4724 28.8225 16.309 28.6791 16.1874C28.5357 16.0659 28.3473 16.0051 28.114 16.0051C27.8953 16.0051 27.713 16.0604 27.5671 16.171C27.4213 16.2816 27.3113 16.4384 27.2372 16.6413C27.1631 16.8443 27.126 17.0843 27.126 17.3614C27.126 17.6069 27.1588 17.8329 27.2244 18.0395C27.2901 18.2461 27.3958 18.4114 27.5416 18.5353ZM31.9029 19.3228C32.0755 19.3253 32.239 19.3004 32.3933 19.2481C32.5477 19.1958 32.6813 19.1108 32.7944 18.9929C32.9074 18.875 32.9858 18.7176 33.0295 18.5208L33.117 19.2499H33.7222V15.4801H32.9457V17.9338C32.9457 18.1938 32.8679 18.3913 32.7123 18.5262C32.5568 18.6611 32.3502 18.7286 32.0925 18.7286C31.8082 18.7286 31.5955 18.6581 31.4545 18.5171C31.3135 18.3761 31.243 18.1926 31.243 17.9666V15.4801H30.4592V18.0504C30.4592 18.2595 30.4987 18.443 30.5777 18.601C30.6567 18.759 30.7636 18.8914 30.8985 18.9984C31.0334 19.1053 31.1871 19.1855 31.3597 19.239C31.5323 19.2925 31.7134 19.3204 31.9029 19.3228ZM35.4296 16.7598V19.2499H34.6494V15.4801H35.4114V16.0234C35.4721 15.9213 35.5542 15.8253 35.6575 15.7353C35.7608 15.6454 35.8884 15.5725 36.0403 15.5166C36.1922 15.4607 36.3678 15.4327 36.5671 15.4327C36.8029 15.4327 37.021 15.4795 37.2215 15.5731C37.4221 15.6667 37.5831 15.8125 37.7046 16.0106C37.8261 16.2087 37.8869 16.4645 37.8869 16.778V19.2499H37.1067V16.8619C37.1067 16.5921 37.0344 16.3916 36.8898 16.2603C36.7451 16.1291 36.5586 16.0635 36.3301 16.0635C36.177 16.0635 36.0312 16.089 35.8926 16.14C35.7541 16.1911 35.6423 16.2682 35.5572 16.3715C35.4721 16.4748 35.4296 16.6043 35.4296 16.7598ZM40.0541 19.2754C40.2048 19.2754 40.3282 19.2682 40.4242 19.2536C40.5202 19.239 40.5925 19.222 40.6411 19.2025V18.6958H40.2C40.093 18.6958 40.0085 18.6879 39.9466 18.6721C39.8846 18.6563 39.8408 18.6198 39.8153 18.5627C39.7898 18.5056 39.777 18.415 39.777 18.2911L39.7734 16.0416H40.6192V15.4765H39.7734V14.3718H39.2083L39.0151 15.4801H38.3807V16.0416H38.9932V18.3202C38.9932 18.522 39.023 18.6939 39.0825 18.8361C39.1421 18.9783 39.249 19.0871 39.4033 19.1624C39.5577 19.2378 39.7746 19.2754 40.0541 19.2754ZM44.5542 13.978V19.2499H43.7558V15.1228H42.7568V14.6379C43.0679 14.6379 43.3128 14.613 43.4915 14.5632C43.6701 14.5134 43.7989 14.4392 43.8779 14.3408C43.9569 14.2424 44.0013 14.1215 44.011 13.978H44.5542ZM58.0821 19.3228C58.3324 19.3228 58.5718 19.2773 58.8003 19.1861C59.0288 19.095 59.2238 18.9595 59.3855 18.7796C59.5471 18.5997 59.6498 18.381 59.6935 18.1234H58.9717C58.9206 18.3251 58.8131 18.477 58.649 18.5791C58.4849 18.6812 58.2911 18.7322 58.0675 18.7322C57.8439 18.7322 57.6567 18.6806 57.506 18.5773C57.3553 18.474 57.2429 18.333 57.1688 18.1543C57.0947 17.9757 57.0576 17.7734 57.0576 17.5473H59.7118V17.2885C59.7118 16.9069 59.6474 16.5757 59.5185 16.295C59.3897 16.0142 59.2007 15.7961 58.9516 15.6405C58.7025 15.485 58.3956 15.4072 58.031 15.4072C57.6616 15.4072 57.3456 15.4923 57.0831 15.6624C56.8206 15.8326 56.6201 16.0677 56.4816 16.3679C56.343 16.6681 56.2737 17.0138 56.2737 17.4051C56.2737 17.8013 56.3497 18.1428 56.5016 18.4296C56.6535 18.7164 56.8656 18.937 57.1378 19.0913C57.41 19.2457 57.7248 19.3228 58.0821 19.3228ZM57.0576 17.0405H58.968C58.968 16.8437 58.934 16.6644 58.8659 16.5028C58.7979 16.3412 58.694 16.2136 58.5542 16.12C58.4145 16.0264 58.2389 15.9796 58.0274 15.9796C57.8111 15.9796 57.6312 16.0319 57.4878 16.1364C57.3444 16.2409 57.2369 16.3746 57.1652 16.5374C57.0935 16.7003 57.0576 16.868 57.0576 17.0405ZM62.0036 19.3228C62.2807 19.3228 62.5292 19.2694 62.7492 19.1624C62.9692 19.0555 63.1478 18.906 63.2851 18.714C63.4225 18.522 63.5045 18.2996 63.5312 18.0468H62.8677C62.8482 18.161 62.8033 18.2716 62.7328 18.3786C62.6623 18.4855 62.5669 18.573 62.4466 18.6411C62.3263 18.7091 62.1847 18.7432 62.0219 18.7432C61.684 18.7432 61.427 18.6192 61.2508 18.3713C61.0746 18.1234 60.9864 17.7904 60.9864 17.3723C60.9864 16.9154 61.0812 16.5763 61.2708 16.3551C61.4604 16.134 61.7059 16.0234 62.0073 16.0234C62.1726 16.0234 62.3153 16.0556 62.4357 16.12C62.556 16.1844 62.652 16.2701 62.7237 16.377C62.7954 16.484 62.8422 16.5994 62.864 16.7234H63.5385C63.5094 16.4609 63.4267 16.2312 63.2906 16.0343C63.1545 15.8374 62.9765 15.6837 62.7565 15.5731C62.5365 15.4625 62.2856 15.4072 62.0036 15.4072C61.6366 15.4072 61.3213 15.4899 61.0575 15.6551C60.7938 15.8204 60.5927 16.0513 60.4542 16.3478C60.3156 16.6444 60.2463 16.9883 60.2463 17.3796C60.2463 17.7952 60.3211 18.1483 60.4706 18.4387C60.62 18.7292 60.8272 18.9491 61.0922 19.0986C61.3571 19.2481 61.6609 19.3228 62.0036 19.3228ZM65.0705 18.1343V19.2499H64.2902V13.8322H65.0705V17.2775L66.7366 15.4801H67.6116L66.2481 16.9348L67.6918 19.2499H66.8824L65.7486 17.4307L65.0705 18.1343ZM69.1613 14.751V13.9817H68.3775V14.751H69.1613ZM69.1467 15.4801V19.2499H68.3957V15.4801H69.1467ZM70.9772 19.2499V16.7598C70.9772 16.6043 71.0197 16.4748 71.1048 16.3715C71.1898 16.2682 71.3016 16.1911 71.4402 16.14C71.5787 16.089 71.7246 16.0635 71.8777 16.0635C72.1062 16.0635 72.2927 16.1291 72.4373 16.2603C72.5819 16.3916 72.6542 16.5921 72.6542 16.8619V19.2499H73.4345V16.778C73.4345 16.4645 73.3737 16.2087 73.2522 16.0106C73.1306 15.8125 72.9696 15.6667 72.7691 15.5731C72.5686 15.4795 72.3504 15.4327 72.1147 15.4327C71.9154 15.4327 71.7398 15.4607 71.5878 15.5166C71.4359 15.5725 71.3083 15.6454 71.205 15.7353C71.1017 15.8253 71.0197 15.9213 70.9589 16.0234V15.4801H70.197V19.2499H70.9772ZM77.3845 20.1668C77.0709 20.3868 76.5946 20.4968 75.9553 20.4968C75.3428 20.4968 74.8689 20.4111 74.5334 20.2398C74.198 20.0684 74.0303 19.8296 74.0303 19.5234C74.0303 19.3897 74.0625 19.2761 74.1269 19.1825C74.1913 19.0889 74.2679 19.0117 74.3566 18.951C74.4453 18.8902 74.5274 18.8422 74.6027 18.807C74.6781 18.7717 74.7267 18.7468 74.7486 18.7322L74.59 18.6392C74.5255 18.6016 74.4678 18.5505 74.4168 18.4861C74.3657 18.4217 74.3402 18.3372 74.3402 18.2327C74.3402 18.1112 74.3979 17.9988 74.5134 17.8955C74.6288 17.7922 74.802 17.7162 75.0329 17.6676C74.8045 17.5558 74.6276 17.4051 74.5025 17.2155C74.3773 17.026 74.3147 16.8242 74.3147 16.6103C74.3147 16.3649 74.384 16.1528 74.5225 15.9741C74.6611 15.7955 74.8561 15.6588 75.1077 15.564C75.3592 15.4692 75.6552 15.4218 75.9954 15.4218C76.2433 15.4218 76.4512 15.4497 76.6189 15.5057C76.7866 15.5616 76.9409 15.6393 77.0819 15.739C77.1281 15.722 77.1937 15.6958 77.2788 15.6606C77.3638 15.6254 77.458 15.5871 77.5613 15.5458C77.6646 15.5044 77.763 15.4643 77.8566 15.4254L78.0845 15.3307L78.0808 16.0088L77.4246 16.1291C77.4586 16.202 77.486 16.2822 77.5066 16.3697C77.5273 16.4572 77.5376 16.5374 77.5376 16.6103C77.5376 16.8291 77.4781 17.0302 77.359 17.2137C77.2399 17.3972 77.0612 17.5437 76.823 17.653C76.5848 17.7624 76.2871 17.8171 75.9298 17.8171C75.8958 17.8171 75.852 17.8165 75.7986 17.8153C75.7451 17.8141 75.7001 17.811 75.6637 17.8062C75.4376 17.8135 75.2821 17.8396 75.197 17.8846C75.1119 17.9295 75.0694 17.9787 75.0694 18.0322C75.0694 18.1003 75.1241 18.1465 75.2334 18.1708C75.3428 18.1951 75.5227 18.2157 75.773 18.2327C75.863 18.24 75.9778 18.2473 76.1176 18.2546C76.2573 18.2619 76.4123 18.2716 76.5824 18.2838C76.9956 18.3081 77.311 18.4114 77.5285 18.5937C77.746 18.776 77.8548 19.0178 77.8548 19.3192C77.8548 19.6643 77.698 19.9469 77.3845 20.1668ZM75.9517 17.3395C75.6819 17.3395 75.4723 17.2763 75.3228 17.1499C75.1733 17.0235 75.0986 16.8485 75.0986 16.6249C75.0986 16.3892 75.1769 16.2057 75.3337 16.0744C75.4905 15.9432 75.6965 15.8775 75.9517 15.8775C76.2045 15.8775 76.408 15.9425 76.5624 16.0726C76.7167 16.2026 76.7939 16.3867 76.7939 16.6249C76.7939 16.8558 76.7167 17.0326 76.5624 17.1554C76.408 17.2781 76.2045 17.3395 75.9517 17.3395ZM75.115 19.8679C75.3252 19.9688 75.6503 20.0192 76.0902 20.0192C76.4232 20.0192 76.6742 19.9712 76.8431 19.8752C77.012 19.7792 77.0965 19.6364 77.0965 19.4468C77.0965 19.3058 77.0418 19.1904 76.9324 19.1004C76.823 19.0105 76.6602 18.9583 76.4439 18.9437L75.4376 18.878C75.338 18.8732 75.2389 18.8951 75.1405 18.9437C75.042 18.9923 74.9606 19.0597 74.8962 19.146C74.8318 19.2323 74.7996 19.3277 74.7996 19.4322C74.7996 19.6218 74.9047 19.767 75.115 19.8679Z" fill="#9597A5"/>
<path fill-rule="evenodd" clip-rule="evenodd" d="M18.6834 36.0208L18.6844 37.2978H17.3777L17.3771 36.0176L17.1461 35.9911C16.4742 35.8963 15.8958 35.6909 15.4107 35.3749C14.7179 34.9235 14.3105 34.2464 14.1886 33.3437L15.7053 33.2692C15.8362 33.7928 16.1093 34.1866 16.5245 34.4507C16.9398 34.7148 17.4499 34.8468 18.0547 34.8468C18.4159 34.8468 18.7521 34.7847 19.0636 34.6606C19.3751 34.5365 19.6256 34.3638 19.8152 34.1426C20.0047 33.9214 20.0995 33.6642 20.0995 33.3708C20.0995 32.9555 19.9743 32.6305 19.7238 32.3958C19.4732 32.161 19.0817 31.976 18.549 31.8405L16.8834 31.4208C16.1521 31.2447 15.571 30.9524 15.1399 30.5439C14.7088 30.1354 14.491 29.5859 14.4865 28.8952C14.482 28.3175 14.6343 27.8119 14.9435 27.3786C15.2527 26.9452 15.6804 26.6078 16.2266 26.3663L16.4654 26.2702C16.7089 26.1815 16.9664 26.115 17.2381 26.0706L17.4448 26.0437L17.4454 24.677H18.7589L18.7584 26.0499L18.8319 26.0584C19.2185 26.1187 19.5677 26.2292 19.8795 26.39C20.3783 26.6473 20.7642 26.9892 21.0373 27.4158C21.3104 27.8424 21.4537 28.3084 21.4672 28.814L19.998 28.8749C19.9077 28.3333 19.7125 27.9191 19.4123 27.6325C19.1121 27.3458 18.6754 27.2025 18.1021 27.2025C17.8268 27.2025 17.565 27.2364 17.3167 27.3041C17.0685 27.3718 16.8495 27.4711 16.66 27.602C16.4704 27.7329 16.3203 27.8943 16.2097 28.0861C16.0991 28.278 16.0438 28.498 16.0438 28.7463C16.0438 29.0803 16.16 29.3444 16.3925 29.5385C16.625 29.7326 17.0481 29.9199 17.662 30.1004L19.2803 30.5405C20.1244 30.7662 20.7292 31.1251 21.0948 31.6171C21.4605 32.1091 21.6433 32.6869 21.6433 33.3504C21.6433 33.8831 21.4943 34.3525 21.1964 34.7588C20.8985 35.165 20.4798 35.4821 19.9404 35.7101L19.7039 35.8008C19.4621 35.8845 19.2043 35.9473 18.9306 35.9892L18.6834 36.0208ZM28.6282 35.7168C28.0595 35.9493 27.3914 36.0655 26.6241 36.0655C25.8657 36.0655 25.2022 35.9493 24.6335 35.7168C24.0647 35.4844 23.6235 35.1571 23.3098 34.7351C22.996 34.313 22.8392 33.8176 22.8392 33.2489C22.8392 32.8697 22.934 32.5075 23.1236 32.1622C23.3131 31.8168 23.5569 31.5246 23.8548 31.2853C24.1527 31.0461 24.4619 30.8949 24.7824 30.8317C24.3491 30.6421 23.988 30.3679 23.6991 30.009C23.4102 29.6502 23.2657 29.2089 23.2657 28.6853C23.2657 28.1076 23.4136 27.6189 23.7092 27.2194C24.0049 26.82 24.4066 26.5153 24.9144 26.3054C25.4223 26.0955 25.9921 25.9905 26.6241 25.9905C27.2651 25.9905 27.8383 26.0955 28.3439 26.3054C28.8494 26.5153 29.2489 26.82 29.5423 27.2194C29.8357 27.6189 29.9824 28.1076 29.9824 28.6853C29.9824 29.2089 29.8414 29.6502 29.5592 30.009C29.2771 30.3679 28.9149 30.6421 28.4725 30.8317C28.7975 30.8949 29.1078 31.0461 29.4035 31.2853C29.6992 31.5246 29.9429 31.8168 30.1348 32.1622C30.3266 32.5075 30.4225 32.8697 30.4225 33.2489C30.4225 33.8176 30.2657 34.313 29.9519 34.7351C29.6382 35.1571 29.197 35.4844 28.6282 35.7168ZM26.6241 30.2359C26.0734 30.2359 25.622 30.0959 25.2699 29.8161C24.9178 29.5362 24.7418 29.148 24.7418 28.6515C24.7418 28.155 24.9178 27.7611 25.2699 27.47C25.622 27.1788 26.0734 27.0333 26.6241 27.0333C27.1793 27.0333 27.6329 27.1777 27.985 27.4666C28.3371 27.7555 28.5131 28.1504 28.5131 28.6515C28.5131 29.148 28.3382 29.5362 27.9884 29.8161C27.6386 30.0959 27.1838 30.2359 26.6241 30.2359ZM25.0025 34.4575C25.4065 34.7667 25.947 34.9213 26.6241 34.9213C27.3102 34.9213 27.8552 34.7667 28.2592 34.4575C28.6632 34.1483 28.8652 33.7386 28.8652 33.2286C28.8652 32.89 28.7738 32.5887 28.591 32.3247C28.4082 32.0606 28.1498 31.853 27.8157 31.7017C27.4817 31.5505 27.0845 31.4749 26.6241 31.4749C26.1727 31.4749 25.78 31.5505 25.446 31.7017C25.1119 31.853 24.8535 32.0606 24.6707 32.3247C24.4879 32.5887 24.3965 32.89 24.3965 33.2286C24.3965 33.7386 24.5985 34.1483 25.0025 34.4575ZM34.7749 36.0655C35.61 36.0655 36.322 35.8647 36.9111 35.4629C37.5002 35.0612 37.9482 34.4733 38.2551 33.6991C38.562 32.925 38.7155 31.9782 38.7155 30.8588C38.7155 29.8522 38.562 28.9855 38.2551 28.2588C37.9482 27.532 37.5103 26.9723 36.9416 26.5796C36.3728 26.1869 35.7002 25.9905 34.9239 25.9905C34.2152 25.9905 33.6024 26.1327 33.0856 26.4171C32.5687 26.7015 32.1693 27.0942 31.8871 27.5952C31.605 28.0963 31.464 28.6718 31.464 29.3218C31.464 29.9718 31.6039 30.5304 31.8837 30.9976C32.1636 31.4648 32.5518 31.8247 33.0483 32.0775C33.5449 32.3303 34.1181 32.4567 34.7681 32.4567C35.1699 32.4567 35.5355 32.389 35.865 32.2536C36.1945 32.1181 36.4789 31.932 36.7181 31.695C36.9574 31.458 37.1357 31.1815 37.253 30.8655C37.3027 31.7999 37.2293 32.5628 37.033 33.1541C36.8366 33.7454 36.5398 34.181 36.1426 34.4609C35.7454 34.7407 35.2737 34.8806 34.7275 34.8806C34.24 34.8806 33.8281 34.7475 33.4918 34.4812C33.1555 34.2148 32.9355 33.8673 32.8317 33.4385H31.4369C31.5001 33.9801 31.6908 34.4462 32.009 34.8366C32.3272 35.2271 32.7278 35.5295 33.2108 35.7439C33.6938 35.9583 34.2152 36.0655 34.7749 36.0655ZM33.5291 30.7166C33.8631 31.0732 34.3393 31.2515 34.9577 31.2515C35.2962 31.2515 35.619 31.1747 35.9259 31.0213C36.2329 30.8678 36.4845 30.6635 36.6809 30.4085C36.8772 30.1535 36.9754 29.8793 36.9754 29.5859C36.9799 29.0984 36.8976 28.6718 36.7283 28.3062C36.559 27.9405 36.322 27.655 36.0173 27.4497C35.7127 27.2443 35.3549 27.1416 34.9442 27.1416C34.574 27.1416 34.2445 27.2307 33.9556 27.409C33.6667 27.5873 33.4399 27.8356 33.2752 28.1538C33.1104 28.4721 33.028 28.8388 33.028 29.2541C33.028 29.8725 33.195 30.36 33.5291 30.7166ZM43.0709 36.0655C43.9059 36.0655 44.618 35.8647 45.2071 35.4629C45.7961 35.0612 46.2441 34.4733 46.5511 33.6991C46.858 32.925 47.0115 31.9782 47.0115 30.8588C47.0115 29.8522 46.858 28.9855 46.5511 28.2588C46.2441 27.532 45.8063 26.9723 45.2375 26.5796C44.6688 26.1869 43.9962 25.9905 43.2198 25.9905C42.5111 25.9905 41.8984 26.1327 41.3815 26.4171C40.8647 26.7015 40.4652 27.0942 40.1831 27.5952C39.901 28.0963 39.7599 28.6718 39.7599 29.3218C39.7599 29.9718 39.8999 30.5304 40.1797 30.9976C40.4596 31.4648 40.8478 31.8247 41.3443 32.0775C41.8408 32.3303 42.4141 32.4567 43.0641 32.4567C43.4658 32.4567 43.8314 32.389 44.161 32.2536C44.4905 32.1181 44.7749 31.932 45.0141 31.695C45.2533 31.458 45.4316 31.1815 45.549 30.8655C45.5986 31.7999 45.5253 32.5628 45.3289 33.1541C45.1326 33.7454 44.8358 34.181 44.4386 34.4609C44.0413 34.7407 43.5696 34.8806 43.0235 34.8806C42.536 34.8806 42.1241 34.7475 41.7878 34.4812C41.4515 34.2148 41.2314 33.8673 41.1276 33.4385H39.7328C39.796 33.9801 39.9867 34.4462 40.305 34.8366C40.6232 35.2271 41.0238 35.5295 41.5068 35.7439C41.9898 35.9583 42.5111 36.0655 43.0709 36.0655ZM41.825 30.7166C42.1591 31.0732 42.6353 31.2515 43.2537 31.2515C43.5922 31.2515 43.915 31.1747 44.2219 31.0213C44.5288 30.8678 44.7805 30.6635 44.9768 30.4085C45.1732 30.1535 45.2714 29.8793 45.2714 29.5859C45.2759 29.0984 45.1935 28.6718 45.0242 28.3062C44.855 27.9405 44.618 27.655 44.3133 27.4497C44.0086 27.2443 43.6509 27.1416 43.2401 27.1416C42.87 27.1416 42.5405 27.2307 42.2516 27.409C41.9627 27.5873 41.7359 27.8356 41.5711 28.1538C41.4064 28.4721 41.324 28.8388 41.324 29.2541C41.324 29.8725 41.491 30.36 41.825 30.7166ZM49.8366 35.9166V34.1697H48.1642V35.9166H49.8366ZM53.3888 26.126H54.3976V35.9166H52.9148V28.252H51.0596V27.3515C51.6374 27.3515 52.0921 27.3052 52.4239 27.2127C52.7557 27.1201 52.9949 26.9825 53.1416 26.7997C53.2883 26.6168 53.3707 26.3923 53.3888 26.126ZM62.4278 35.9166V33.5062H64.019V32.2536H62.4278V26.126H60.9721L56.4356 32.2333V33.5062H61.0195V35.9166H62.4278ZM57.8033 32.2536H60.9992V27.9676L57.8033 32.2536Z" fill="#2D314D"/>
</svg>
