<svg width="188" height="8" viewBox="0 0 188 8" fill="none" xmlns="http://www.w3.org/2000/svg">
<path fill-rule="evenodd" clip-rule="evenodd" d="M178.585 0.691895H171.13V1.68677H170.633H169.428L170.279 2.53987L170.633 2.89479V3.09341C170.567 3.13247 170.512 3.16619 170.469 3.19319C170.434 3.21513 170.406 3.23266 170.387 3.24503L170.365 3.25963L170.358 3.26386L170.357 3.26517L170.356 3.26563L170.356 3.26581C170.355 3.26588 170.355 3.26595 170.633 3.68164L170.355 3.26595L168.985 4.18164H170.633V5.17652H171.13V6.67139H174.4L174.606 6.87812V7.88071L175.106 7.37941L175.606 7.88071V6.87812L175.812 6.67139H178.585V4.18164H179.579H181.227L179.857 3.26595L179.579 3.68164C179.857 3.26595 179.857 3.26588 179.857 3.26581L179.857 3.26563L179.856 3.26517L179.854 3.26386L179.848 3.25963L179.825 3.24503C179.806 3.23266 179.779 3.21513 179.743 3.19319C179.675 3.15054 179.577 3.0911 179.454 3.02033L179.933 2.53987L180.784 1.68677H179.579H178.585V0.691895ZM181.07 6.67139H187.034V0.691895L181.07 6.67139Z" fill="white"/>
<path fill-rule="evenodd" clip-rule="evenodd" d="M12.9987 5.21291C12.6972 5.42916 12.3469 5.53729 11.948 5.53729C11.5491 5.53729 11.1988 5.42916 10.8973 5.21291C10.5958 4.99665 10.3627 4.699 10.198 4.31997C10.0334 3.94093 9.95103 3.51423 9.95103 3.03986C9.95103 2.56548 10.0334 2.13878 10.198 1.75975C10.3627 1.38071 10.5958 1.08307 10.8973 0.866807C11.1988 0.650549 11.5491 0.542419 11.948 0.542419C12.3469 0.542419 12.6972 0.650549 12.9987 0.866807C13.3002 1.08307 13.5333 1.38071 13.698 1.75975C13.8626 2.13878 13.945 2.56548 13.945 3.03986C13.945 3.51423 13.8626 3.94093 13.698 4.31997C13.5333 4.699 13.3002 4.99665 12.9987 5.21291ZM2.31887 0.654037V5.42568H1.40736V1.84695L0.690679 2.37015L0.231445 1.66557L1.63002 0.654037H2.31887ZM6.46329 4.54669V5.42568H5.55178V4.54669H3.35998V3.80723L5.47524 0.654037H6.46329V3.69561H7.05472V4.54669H6.46329ZM5.55178 3.69561H4.3689L5.49611 2.01437H5.55178V3.69561ZM8.92732 2.81313C8.80903 2.93173 8.66639 2.99102 8.4994 2.99102C8.3324 2.99102 8.18976 2.93173 8.07148 2.81313C7.95319 2.69454 7.89404 2.55153 7.89404 2.38411C7.89404 2.21668 7.95319 2.07483 8.07148 1.95856C8.18976 1.8423 8.3324 1.78416 8.4994 1.78416C8.66639 1.78416 8.80903 1.8423 8.92732 1.95856C9.04561 2.07483 9.10475 2.21668 9.10475 2.38411C9.10475 2.55153 9.04561 2.69454 8.92732 2.81313ZM8.4994 5.46753C8.66639 5.46753 8.80903 5.40824 8.92732 5.28964C9.04561 5.17105 9.10475 5.02804 9.10475 4.86061C9.10475 4.69319 9.04561 4.55134 8.92732 4.43507C8.80903 4.31881 8.66639 4.26067 8.4994 4.26067C8.3324 4.26067 8.18976 4.31881 8.07148 4.43507C7.95319 4.55134 7.89404 4.69319 7.89404 4.86061C7.89404 5.02804 7.95319 5.17105 8.07148 5.28964C8.18976 5.40824 8.3324 5.46753 8.4994 5.46753ZM11.948 4.67924C11.73 4.67924 11.5386 4.60831 11.374 4.46647C11.2093 4.32462 11.084 4.12929 10.9982 3.88047C10.9124 3.63166 10.8695 3.35146 10.8695 3.03986C10.8695 2.56083 10.9669 2.16785 11.1617 1.8609C11.3566 1.55395 11.6187 1.40048 11.948 1.40048C12.282 1.40048 12.5464 1.55279 12.7412 1.85741C12.9361 2.16203 13.0335 2.55618 13.0335 3.03986C13.0335 3.35146 12.9906 3.63166 12.9047 3.88047C12.8189 4.12929 12.6937 4.32462 12.529 4.46647C12.3643 4.60831 12.1707 4.67924 11.948 4.67924ZM17.8946 1.55395L15.6541 5.53729L14.8887 5.11175L16.8717 1.55395L16.8439 1.51209H14.659V0.654037H17.8946V1.55395Z" fill="white"/>
</svg>
