<svg width="180" height="51" viewBox="0 0 180 51" fill="none" xmlns="http://www.w3.org/2000/svg">
<rect x="0.695801" y="0.833313" width="179.167" height="50" rx="4" fill="white"/>
<path fill-rule="evenodd" clip-rule="evenodd" d="M46.4902 19.5833V18.9052H43.7339V18.814C43.7339 18.622 43.7837 18.458 43.8834 18.3219C43.983 18.1857 44.1143 18.0636 44.2771 17.9555C44.44 17.8473 44.6186 17.744 44.8131 17.6456C45.0075 17.5471 45.202 17.4438 45.3964 17.3357C45.5908 17.2275 45.7689 17.1029 45.9305 16.962C46.0921 16.821 46.2228 16.6533 46.3224 16.4588C46.4221 16.2644 46.4719 16.0323 46.4719 15.7625C46.4719 15.4587 46.399 15.1925 46.2532 14.964C46.1073 14.7356 45.9013 14.5575 45.6352 14.4299C45.3691 14.3023 45.0537 14.2385 44.6891 14.2385C44.2686 14.2385 43.9162 14.3151 43.6318 14.4682C43.3474 14.6213 43.1323 14.8267 42.9865 15.0844C42.8407 15.342 42.7641 15.6276 42.7568 15.9411H43.5224C43.554 15.6203 43.6707 15.3687 43.8724 15.1864C44.0742 15.0042 44.3367 14.913 44.6599 14.913C44.9638 14.913 45.2044 14.992 45.3818 15.15C45.5592 15.308 45.648 15.5134 45.648 15.7661C45.648 15.9581 45.5975 16.1252 45.4967 16.2674C45.3958 16.4096 45.2627 16.5372 45.0974 16.6502C44.9322 16.7633 44.7511 16.872 44.5542 16.9765C44.3573 17.0811 44.1599 17.1904 43.9618 17.3047C43.7637 17.4189 43.582 17.5495 43.4167 17.6966C43.2514 17.8436 43.1184 18.0156 43.0175 18.2125C42.9166 18.4094 42.8662 18.6415 42.8662 18.9088V19.5833H46.4902ZM14.4813 19.5833L14.9881 18.2015H17.0699L17.5657 19.5833H18.3532L16.4537 14.3114H15.5933L13.6902 19.5833H14.4813ZM16.8694 17.4943H15.174L16.0272 15.0771L16.8694 17.4943ZM21.2166 19.4958C20.9966 19.6028 20.7481 19.6562 20.471 19.6562C20.1283 19.6562 19.8245 19.5815 19.5595 19.432C19.2946 19.2825 19.0874 19.0626 18.9379 18.7721C18.7884 18.4817 18.7137 18.1286 18.7137 17.713C18.7137 17.3217 18.783 16.9778 18.9215 16.6812C19.06 16.3847 19.2612 16.1538 19.5249 15.9885C19.7886 15.8232 20.104 15.7406 20.471 15.7406C20.7529 15.7406 21.0039 15.7959 21.2238 15.9065C21.4438 16.0171 21.6218 16.1708 21.758 16.3677C21.8941 16.5646 21.9767 16.7943 22.0059 17.0568H21.3314C21.3095 16.9328 21.2627 16.8173 21.191 16.7104C21.1193 16.6035 21.0233 16.5178 20.903 16.4534C20.7827 16.389 20.6399 16.3568 20.4746 16.3568C20.1732 16.3568 19.9278 16.4673 19.7382 16.6885C19.5486 16.9097 19.4538 17.2488 19.4538 17.7057C19.4538 18.1238 19.5419 18.4568 19.7181 18.7047C19.8943 18.9526 20.1514 19.0765 20.4892 19.0765C20.6521 19.0765 20.7936 19.0425 20.9139 18.9745C21.0343 18.9064 21.1297 18.8189 21.2001 18.712C21.2706 18.605 21.3156 18.4944 21.335 18.3802H21.9986C21.9718 18.633 21.8898 18.8554 21.7525 19.0474C21.6152 19.2394 21.4365 19.3889 21.2166 19.4958ZM24.2925 19.6562C24.5696 19.6562 24.8181 19.6028 25.0381 19.4958C25.258 19.3889 25.4367 19.2394 25.574 19.0474C25.7113 18.8554 25.7934 18.633 25.8201 18.3802H25.1566C25.1371 18.4944 25.0921 18.605 25.0217 18.712C24.9512 18.8189 24.8558 18.9064 24.7355 18.9745C24.6152 19.0425 24.4736 19.0765 24.3107 19.0765C23.9729 19.0765 23.7158 18.9526 23.5396 18.7047C23.3634 18.4568 23.2753 18.1238 23.2753 17.7057C23.2753 17.2488 23.3701 16.9097 23.5597 16.6885C23.7493 16.4673 23.9948 16.3568 24.2961 16.3568C24.4614 16.3568 24.6042 16.389 24.7245 16.4534C24.8448 16.5178 24.9408 16.6035 25.0125 16.7104C25.0843 16.8173 25.131 16.9328 25.1529 17.0568H25.8274C25.7982 16.7943 25.7156 16.5646 25.5795 16.3677C25.4434 16.1708 25.2653 16.0171 25.0454 15.9065C24.8254 15.7959 24.5744 15.7406 24.2925 15.7406C23.9255 15.7406 23.6101 15.8232 23.3464 15.9885C23.0827 16.1538 22.8816 16.3847 22.743 16.6812C22.6045 16.9778 22.5352 17.3217 22.5352 17.713C22.5352 18.1286 22.6099 18.4817 22.7594 18.7721C22.9089 19.0626 23.1161 19.2825 23.381 19.432C23.646 19.5815 23.9498 19.6562 24.2925 19.6562ZM29.0638 19.4101C28.8049 19.5742 28.4871 19.6562 28.1104 19.6562C27.7579 19.6562 27.4499 19.5803 27.1861 19.4284C26.9224 19.2765 26.7183 19.0559 26.5736 18.7667C26.429 18.4774 26.3567 18.1274 26.3567 17.7167C26.3567 17.3205 26.4254 16.9741 26.5627 16.6776C26.7 16.3811 26.9 16.1508 27.1625 15.9867C27.425 15.8226 27.7421 15.7406 28.114 15.7406C28.4689 15.7406 28.7763 15.8178 29.0364 15.9721C29.2965 16.1265 29.4982 16.3513 29.6416 16.6466C29.785 16.9419 29.8567 17.2986 29.8567 17.7167C29.8567 18.0982 29.7893 18.4349 29.6544 18.7265C29.5195 19.0182 29.3226 19.2461 29.0638 19.4101ZM28.114 19.0547C27.8783 19.0547 27.6875 18.9927 27.5416 18.8687C27.3958 18.7448 27.2901 18.5795 27.2244 18.3729C27.1588 18.1663 27.126 17.9403 27.126 17.6948C27.126 17.4177 27.1631 17.1777 27.2372 16.9747C27.3113 16.7718 27.4213 16.615 27.5671 16.5044C27.713 16.3938 27.8953 16.3385 28.114 16.3385C28.3473 16.3385 28.5357 16.3993 28.6791 16.5208C28.8225 16.6423 28.9264 16.8058 28.9908 17.0112C29.0552 17.2166 29.0875 17.4444 29.0875 17.6948C29.0875 17.9646 29.051 18.2022 28.9781 18.4075C28.9052 18.6129 28.7964 18.7721 28.6518 18.8851C28.5072 18.9982 28.3279 19.0547 28.114 19.0547ZM32.3933 19.5815C32.239 19.6338 32.0755 19.6587 31.9029 19.6562C31.7134 19.6538 31.5323 19.6259 31.3597 19.5724C31.1871 19.5189 31.0334 19.4387 30.8985 19.3318C30.7636 19.2248 30.6567 19.0923 30.5777 18.9344C30.4987 18.7764 30.4592 18.5929 30.4592 18.3838V15.8135H31.243V18.3C31.243 18.526 31.3135 18.7095 31.4545 18.8505C31.5955 18.9915 31.8082 19.062 32.0925 19.062C32.3502 19.062 32.5568 18.9945 32.7123 18.8596C32.8679 18.7247 32.9457 18.5272 32.9457 18.2672V15.8135H33.7222V19.5833H33.117L33.0295 18.8542C32.9858 19.051 32.9074 19.2084 32.7944 19.3263C32.6813 19.4442 32.5477 19.5292 32.3933 19.5815ZM35.4296 19.5833V17.0932C35.4296 16.9377 35.4721 16.8082 35.5572 16.7049C35.6423 16.6016 35.7541 16.5245 35.8926 16.4734C36.0312 16.4224 36.177 16.3969 36.3301 16.3969C36.5586 16.3969 36.7451 16.4625 36.8898 16.5937C37.0344 16.725 37.1067 16.9255 37.1067 17.1953V19.5833H37.8869V17.1114C37.8869 16.7979 37.8261 16.5421 37.7046 16.344C37.5831 16.1459 37.4221 16.0001 37.2215 15.9065C37.021 15.8129 36.8029 15.7661 36.5671 15.7661C36.3678 15.7661 36.1922 15.7941 36.0403 15.85C35.8884 15.9059 35.7608 15.9788 35.6575 16.0687C35.5542 16.1587 35.4721 16.2547 35.4114 16.3568V15.8135H34.6494V19.5833H35.4296ZM40.4242 19.587C40.3282 19.6015 40.2048 19.6088 40.0541 19.6088C39.7746 19.6088 39.5577 19.5712 39.4033 19.4958C39.249 19.4205 39.1421 19.3117 39.0825 19.1695C39.023 19.0273 38.9932 18.8554 38.9932 18.6536V16.375H38.3807V15.8135H39.0151L39.2083 14.7052H39.7734V15.8099H40.6192V16.375H39.7734L39.777 18.6245C39.777 18.7484 39.7898 18.839 39.8153 18.8961C39.8408 18.9532 39.8846 18.9897 39.9466 19.0055C40.0085 19.0213 40.093 19.0292 40.2 19.0292H40.6411V19.5359C40.5925 19.5554 40.5202 19.5724 40.4242 19.587ZM51.8573 19.463C51.5559 19.5918 51.195 19.6562 50.7745 19.6562C50.5241 19.6562 50.2798 19.6246 50.0417 19.5614C49.8035 19.4982 49.5871 19.4041 49.3927 19.2789C49.1982 19.1537 49.0372 18.9976 48.9096 18.8104C48.782 18.6232 48.7024 18.4045 48.6708 18.1542H49.4838C49.5252 18.3437 49.6072 18.5029 49.7299 18.6318C49.8527 18.7606 50.004 18.8578 50.1838 18.9234C50.3637 18.989 50.5594 19.0219 50.7708 19.0219C51.0042 19.0219 51.2138 18.9897 51.3997 18.9252C51.5857 18.8608 51.7333 18.7685 51.8427 18.6482C51.9521 18.5278 52.0068 18.3826 52.0068 18.2125C52.0068 18.0594 51.9697 17.9293 51.8956 17.8224C51.8214 17.7154 51.7169 17.6261 51.582 17.5544C51.4471 17.4827 51.2849 17.4262 51.0953 17.3849L50.0963 17.1588C49.705 17.0762 49.3969 16.9225 49.1721 16.6976C48.9473 16.4728 48.8337 16.1745 48.8312 15.8026C48.8288 15.4915 48.9108 15.2193 49.0773 14.9859C49.2438 14.7526 49.4717 14.5709 49.7609 14.4409C50.0502 14.3108 50.3795 14.2458 50.7489 14.2458C51.1792 14.2458 51.5407 14.3175 51.8336 14.4609C52.1265 14.6043 52.3482 14.7933 52.4989 15.0278C52.6496 15.2624 52.7262 15.517 52.7286 15.7917H51.9302C51.9107 15.568 51.8451 15.3906 51.7333 15.2594C51.6215 15.1281 51.4811 15.0339 51.3122 14.9768C51.1433 14.9197 50.958 14.8911 50.7562 14.8911C50.6104 14.8911 50.4706 14.9094 50.337 14.9458C50.2033 14.9823 50.0854 15.0357 49.9833 15.1062C49.8812 15.1767 49.8004 15.2636 49.7409 15.3669C49.6813 15.4702 49.6515 15.5887 49.6515 15.7224C49.6515 15.9022 49.7123 16.0481 49.8338 16.1599C49.9554 16.2717 50.179 16.3677 50.5047 16.4479L51.4818 16.6703C51.7613 16.7286 51.9873 16.8143 52.1599 16.9273C52.3325 17.0403 52.4649 17.1686 52.5573 17.312C52.6496 17.4554 52.7128 17.6042 52.7469 17.7586C52.7809 17.9129 52.7979 18.0606 52.7979 18.2015C52.7979 18.4738 52.7165 18.7199 52.5536 18.9398C52.3908 19.1598 52.1587 19.3342 51.8573 19.463ZM54.655 19.6562C54.9248 19.6562 55.1672 19.6009 55.3823 19.4903C55.5974 19.3798 55.7755 19.1798 55.9165 18.8906L55.9784 19.5833H56.6383V16.9474C56.6383 16.6897 56.5843 16.471 56.4761 16.2911C56.3679 16.1113 56.2033 15.9745 55.9821 15.881C55.7609 15.7874 55.479 15.7406 55.1362 15.7406C54.8276 15.7406 54.559 15.7844 54.3305 15.8719C54.102 15.9594 53.9228 16.0888 53.7928 16.2601C53.6627 16.4315 53.5904 16.6423 53.5758 16.8927H54.254C54.3026 16.6812 54.4053 16.5293 54.562 16.437C54.7188 16.3446 54.8981 16.2984 55.0998 16.2984C55.3671 16.296 55.5652 16.3568 55.6941 16.4807C55.8229 16.6047 55.8873 16.7748 55.8873 16.9911V17.2646L55.2675 17.2828C54.6185 17.2949 54.1458 17.4043 53.8493 17.6109C53.5527 17.8175 53.4045 18.1298 53.4045 18.5479C53.4045 18.7812 53.4579 18.9805 53.5649 19.1458C53.6718 19.3111 53.8195 19.4375 54.0079 19.525C54.1962 19.6125 54.4119 19.6562 54.655 19.6562ZM54.367 18.9435C54.5079 19.0565 54.6854 19.113 54.8993 19.113C55.0184 19.113 55.1362 19.0917 55.2529 19.0492C55.3696 19.0067 55.4753 18.9483 55.5701 18.8742C55.6649 18.8001 55.7408 18.7168 55.798 18.6245C55.8551 18.5321 55.8849 18.4373 55.8873 18.3401V17.7167L55.3769 17.7276C55.1168 17.73 54.8962 17.7568 54.7152 17.8078C54.5341 17.8588 54.3955 17.9378 54.2995 18.0448C54.2035 18.1517 54.1555 18.2939 54.1555 18.4713C54.1555 18.6731 54.226 18.8305 54.367 18.9435ZM59.1501 19.5833L60.5209 15.8135H59.799L58.8438 18.5953H58.7928L57.8376 15.8135H57.1157L58.4902 19.5833H59.1501ZM61.9216 14.3151V15.0844H61.1377V14.3151H61.9216ZM61.907 19.5833V15.8135H61.156V19.5833H61.907ZM63.7374 17.0932V19.5833H62.9572V15.8135H63.7192V16.3568C63.78 16.2547 63.862 16.1587 63.9653 16.0687C64.0686 15.9788 64.1962 15.9059 64.3481 15.85C64.5 15.7941 64.6756 15.7661 64.875 15.7661C65.1107 15.7661 65.3289 15.8129 65.5294 15.9065C65.7299 16.0001 65.8909 16.1459 66.0125 16.344C66.134 16.5421 66.1947 16.7979 66.1947 17.1114V19.5833H65.4145V17.1953C65.4145 16.9255 65.3422 16.725 65.1976 16.5937C65.053 16.4625 64.8664 16.3969 64.638 16.3969C64.4848 16.3969 64.339 16.4224 64.2005 16.4734C64.0619 16.5245 63.9501 16.6016 63.8651 16.7049C63.78 16.8082 63.7374 16.9377 63.7374 17.0932ZM68.7156 20.8302C69.3548 20.8302 69.8312 20.7202 70.1448 20.5002C70.4583 20.2803 70.6151 19.9977 70.6151 19.6526C70.6151 19.3512 70.5063 19.1094 70.2888 18.9271C70.0713 18.7448 69.7559 18.6415 69.3427 18.6172C69.1726 18.605 69.0176 18.5953 68.8778 18.588C68.7381 18.5807 68.6232 18.5734 68.5333 18.5661C68.283 18.5491 68.1031 18.5285 67.9937 18.5042C67.8844 18.4798 67.8297 18.4337 67.8297 18.3656C67.8297 18.3121 67.8722 18.2629 67.9573 18.218C68.0423 18.173 68.1979 18.1469 68.4239 18.1396C68.4604 18.1444 68.5054 18.1475 68.5588 18.1487C68.6123 18.1499 68.6561 18.1505 68.6901 18.1505C69.0474 18.1505 69.3451 18.0958 69.5833 17.9864C69.8215 17.8771 70.0002 17.7306 70.1193 17.5471C70.2383 17.3636 70.2979 17.1625 70.2979 16.9437C70.2979 16.8708 70.2876 16.7906 70.2669 16.7031C70.2463 16.6156 70.2189 16.5354 70.1849 16.4625L70.8411 16.3422L70.8448 15.664L70.6169 15.7588C70.5233 15.7977 70.4249 15.8378 70.3216 15.8792C70.2183 15.9205 70.1241 15.9588 70.039 15.994C69.954 16.0292 69.8884 16.0554 69.8422 16.0724C69.7012 15.9727 69.5469 15.8949 69.3792 15.839C69.2114 15.7831 69.0036 15.7552 68.7557 15.7552C68.4154 15.7552 68.1195 15.8026 67.868 15.8974C67.6164 15.9922 67.4213 16.1289 67.2828 16.3075C67.1443 16.4862 67.075 16.6982 67.075 16.9437C67.075 17.1576 67.1376 17.3594 67.2627 17.5489C67.3879 17.7385 67.5647 17.8892 67.7932 18.001C67.5623 18.0496 67.3891 18.1256 67.2737 18.2289C67.1582 18.3322 67.1005 18.4446 67.1005 18.5661C67.1005 18.6706 67.126 18.7551 67.1771 18.8195C67.2281 18.8839 67.2858 18.935 67.3502 18.9726L67.5088 19.0656C67.487 19.0802 67.4384 19.1051 67.363 19.1403C67.2877 19.1756 67.2056 19.2236 67.1169 19.2844C67.0282 19.3451 66.9516 19.4223 66.8872 19.5159C66.8228 19.6094 66.7906 19.7231 66.7906 19.8568C66.7906 20.163 66.9583 20.4018 67.2937 20.5732C67.6292 20.7445 68.1031 20.8302 68.7156 20.8302ZM68.0831 17.4833C68.2325 17.6097 68.4422 17.6729 68.712 17.6729C68.9647 17.6729 69.1683 17.6115 69.3226 17.4888C69.477 17.366 69.5541 17.1892 69.5541 16.9583C69.5541 16.7201 69.477 16.536 69.3226 16.406C69.1683 16.2759 68.9647 16.2109 68.712 16.2109C68.4568 16.2109 68.2508 16.2765 68.094 16.4078C67.9372 16.539 67.8588 16.7226 67.8588 16.9583C67.8588 17.1819 67.9336 17.3569 68.0831 17.4833ZM68.8505 20.3526C68.4106 20.3526 68.0855 20.3022 67.8752 20.2013C67.665 20.1004 67.5599 19.9552 67.5599 19.7656C67.5599 19.6611 67.5921 19.5657 67.6565 19.4794C67.7209 19.3931 67.8023 19.3257 67.9008 19.2771C67.9992 19.2285 68.0982 19.2066 68.1979 19.2114L69.2042 19.2771C69.4205 19.2917 69.5833 19.3439 69.6927 19.4338C69.8021 19.5238 69.8568 19.6392 69.8568 19.7802C69.8568 19.9698 69.7723 20.1126 69.6034 20.2086C69.4344 20.3046 69.1835 20.3526 68.8505 20.3526ZM73.5673 19.5195C73.3449 19.6107 73.0806 19.6562 72.7743 19.6562C72.5118 19.6562 72.2657 19.6149 72.0361 19.5323C71.8064 19.4496 71.6143 19.3196 71.46 19.1422C71.3057 18.9647 71.2091 18.7375 71.1702 18.4604H71.8665C71.8981 18.6038 71.9583 18.7223 72.047 18.8159C72.1357 18.9094 72.2426 18.9787 72.3678 19.0237C72.493 19.0686 72.6273 19.0911 72.7707 19.0911C73.0089 19.0911 73.2015 19.048 73.3486 18.9617C73.4956 18.8754 73.5691 18.7423 73.5691 18.5625C73.5691 18.4337 73.5296 18.3304 73.4506 18.2526C73.3716 18.1748 73.2471 18.1177 73.0769 18.0812L72.3259 17.9026C72.0148 17.8297 71.7657 17.7136 71.5785 17.5544C71.3913 17.3952 71.2966 17.1722 71.2941 16.8854C71.2941 16.6642 71.3494 16.4673 71.46 16.2948C71.5706 16.1222 71.7353 15.9867 71.954 15.8883C72.1728 15.7898 72.445 15.7406 72.7707 15.7406C73.196 15.7406 73.5375 15.8354 73.7952 16.025C74.0528 16.2146 74.1865 16.4892 74.1962 16.8489H73.5217C73.4974 16.6764 73.419 16.5409 73.2866 16.4424C73.1541 16.344 72.9797 16.2948 72.7634 16.2948C72.5398 16.2948 72.3563 16.3391 72.2129 16.4278C72.0695 16.5166 71.9978 16.6521 71.9978 16.8344C71.9978 16.9583 72.05 17.0561 72.1545 17.1278C72.2591 17.1995 72.4158 17.2585 72.6249 17.3047L73.3394 17.4833C73.5242 17.5319 73.6761 17.5957 73.7952 17.6747C73.9143 17.7537 74.0078 17.8406 74.0759 17.9354C74.144 18.0302 74.192 18.1286 74.2199 18.2307C74.2479 18.3328 74.2618 18.4288 74.2618 18.5187C74.2618 18.7569 74.2017 18.9605 74.0814 19.1294C73.9611 19.2983 73.7897 19.4284 73.5673 19.5195Z" fill="#9597A5"/>
<path fill-rule="evenodd" clip-rule="evenodd" d="M18.6834 36.3541L18.6844 37.6312H17.3777L17.3771 36.351L17.1461 36.3244C16.4742 36.2296 15.8958 36.0243 15.4107 35.7083C14.7179 35.2569 14.3105 34.5798 14.1886 33.677L15.7053 33.6026C15.8362 34.1262 16.1093 34.52 16.5245 34.7841C16.9398 35.0481 17.4499 35.1802 18.0547 35.1802C18.4159 35.1802 18.7521 35.1181 19.0636 34.994C19.3751 34.8698 19.6256 34.6972 19.8152 34.476C20.0047 34.2548 20.0995 33.9975 20.0995 33.7041C20.0995 33.2888 19.9743 32.9638 19.7238 32.7291C19.4732 32.4944 19.0817 32.3093 18.549 32.1739L16.8834 31.7541C16.1521 31.5781 15.571 31.2858 15.1399 30.8773C14.7088 30.4688 14.491 29.9192 14.4865 29.2286C14.482 28.6508 14.6343 28.1453 14.9435 27.7119C15.2527 27.2786 15.6804 26.9412 16.2266 26.6997L16.4654 26.6036C16.7089 26.5149 16.9664 26.4483 17.2381 26.404L17.4448 26.377L17.4454 25.0104H18.7589L18.7584 26.3833L18.8319 26.3917C19.2185 26.452 19.5677 26.5626 19.8795 26.7234C20.3783 26.9807 20.7642 27.3226 21.0373 27.7492C21.3104 28.1757 21.4537 28.6418 21.4672 29.1474L19.998 29.2083C19.9077 28.6666 19.7125 28.2525 19.4123 27.9658C19.1121 27.6792 18.6754 27.5359 18.1021 27.5359C17.8268 27.5359 17.565 27.5698 17.3167 27.6375C17.0685 27.7052 16.8495 27.8045 16.66 27.9354C16.4704 28.0663 16.3203 28.2277 16.2097 28.4195C16.0991 28.6113 16.0438 28.8314 16.0438 29.0796C16.0438 29.4137 16.16 29.6777 16.3925 29.8718C16.625 30.0659 17.0481 30.2533 17.662 30.4338L19.2803 30.8739C20.1244 31.0996 20.7292 31.4585 21.0948 31.9505C21.4605 32.4425 21.6433 33.0203 21.6433 33.6838C21.6433 34.2165 21.4943 34.6859 21.1964 35.0921C20.8985 35.4984 20.4798 35.8155 19.9404 36.0434L19.7039 36.1342C19.4621 36.2179 19.2043 36.2807 18.9306 36.3226L18.6834 36.3541ZM26.448 34.7773C26.2946 35.3393 26.1998 35.8302 26.1637 36.25H24.5861C24.6493 35.8166 24.7689 35.2772 24.9449 34.6317C25.121 33.9862 25.3591 33.2787 25.6592 32.5091C25.9594 31.7395 26.3239 30.9416 26.7527 30.1156C27.1815 29.2895 27.6803 28.4793 28.2491 27.6849H22.8189V26.4593H29.8131V27.6849C29.4746 28.1408 29.1383 28.6599 28.8043 29.2421C28.4703 29.8244 28.1532 30.4349 27.853 31.0737C27.5528 31.7124 27.282 32.3488 27.0405 32.983C26.799 33.6172 26.6015 34.2153 26.448 34.7773ZM36.5226 36.25V33.8395H38.1138V32.5869H36.5226V26.4593H35.0669L30.5304 32.5666V33.8395H35.1143V36.25H36.5226ZM31.8981 32.5869H35.094V28.301L31.8981 32.5869ZM39.5399 38.0036L40.7451 36.0401V34.6317H39.0659V36.2432L39.6821 36.2838L38.917 38.0036H39.5399ZM45.4567 26.4593V36.25H43.9739V28.5854H42.1187V27.6849C42.6965 27.6849 43.1513 27.6386 43.483 27.5461C43.8148 27.4535 44.054 27.3158 44.2007 27.133C44.3474 26.9502 44.4298 26.7257 44.4479 26.4593H45.4567ZM50.8802 36.3989C51.7152 36.3989 52.4273 36.198 53.0164 35.7963C53.6054 35.3946 54.0534 34.8066 54.3604 34.0325C54.6673 33.2584 54.8208 32.3116 54.8208 31.1921C54.8208 30.1855 54.6673 29.3189 54.3604 28.5921C54.0534 27.8654 53.6156 27.3057 53.0468 26.913C52.4781 26.5203 51.8055 26.3239 51.0291 26.3239C50.3204 26.3239 49.7077 26.4661 49.1908 26.7505C48.674 27.0349 48.2745 27.4276 47.9924 27.9286C47.7103 28.4296 47.5692 29.0052 47.5692 29.6552C47.5692 30.3052 47.7092 30.8638 47.989 31.3309C48.2689 31.7981 48.6571 32.1581 49.1536 32.4109C49.6501 32.6637 50.2234 32.7901 50.8734 32.7901C51.2751 32.7901 51.6408 32.7224 51.9703 32.5869C52.2998 32.4515 52.5842 32.2653 52.8234 32.0283C53.0626 31.7914 53.2409 31.5149 53.3583 31.1989C53.4079 32.1333 53.3346 32.8961 53.1382 33.4875C52.9419 34.0788 52.6451 34.5144 52.2479 34.7942C51.8507 35.0741 51.379 35.214 50.8328 35.214C50.3453 35.214 49.9334 35.0809 49.5971 34.8145C49.2608 34.5482 49.0408 34.2007 48.9369 33.7718H47.5421C47.6053 34.3135 47.7961 34.7796 48.1143 35.17C48.4325 35.5605 48.8331 35.8629 49.3161 36.0773C49.7991 36.2917 50.3204 36.3989 50.8802 36.3989ZM49.6343 31.05C49.9684 31.4066 50.4446 31.5849 51.063 31.5849C51.4015 31.5849 51.7243 31.5081 52.0312 31.3546C52.3382 31.2012 52.5898 30.9969 52.7862 30.7419C52.9825 30.4869 53.0807 30.2126 53.0807 29.9192C53.0852 29.4317 53.0028 29.0052 52.8336 28.6395C52.6643 28.2739 52.4273 27.9884 52.1226 27.783C51.8179 27.5777 51.4602 27.475 51.0494 27.475C50.6793 27.475 50.3498 27.5641 50.0609 27.7424C49.772 27.9207 49.5452 28.169 49.3804 28.4872C49.2157 28.8054 49.1333 29.1722 49.1333 29.5875C49.1333 30.2059 49.3003 30.6934 49.6343 31.05ZM59.1761 36.3989C60.0112 36.3989 60.7233 36.198 61.3123 35.7963C61.9014 35.3946 62.3494 34.8066 62.6563 34.0325C62.9633 33.2584 63.1168 32.3116 63.1168 31.1921C63.1168 30.1855 62.9633 29.3189 62.6563 28.5921C62.3494 27.8654 61.9115 27.3057 61.3428 26.913C60.774 26.5203 60.1015 26.3239 59.3251 26.3239C58.6164 26.3239 58.0037 26.4661 57.4868 26.7505C56.97 27.0349 56.5705 27.4276 56.2884 27.9286C56.0063 28.4296 55.8652 29.0052 55.8652 29.6552C55.8652 30.3052 56.0051 30.8638 56.285 31.3309C56.5648 31.7981 56.953 32.1581 57.4496 32.4109C57.9461 32.6637 58.5194 32.7901 59.1694 32.7901C59.5711 32.7901 59.9367 32.7224 60.2662 32.5869C60.5957 32.4515 60.8801 32.2653 61.1194 32.0283C61.3586 31.7914 61.5369 31.5149 61.6543 31.1989C61.7039 32.1333 61.6306 32.8961 61.4342 33.4875C61.2379 34.0788 60.9411 34.5144 60.5438 34.7942C60.1466 35.0741 59.6749 35.214 59.1287 35.214C58.6412 35.214 58.2293 35.0809 57.8931 34.8145C57.5568 34.5482 57.3367 34.2007 57.2329 33.7718H55.8381C55.9013 34.3135 56.092 34.7796 56.4102 35.17C56.7285 35.5605 57.1291 35.8629 57.6121 36.0773C58.0951 36.2917 58.6164 36.3989 59.1761 36.3989ZM57.9303 31.05C58.2643 31.4066 58.7405 31.5849 59.3589 31.5849C59.6975 31.5849 60.0202 31.5081 60.3272 31.3546C60.6341 31.2012 60.8858 30.9969 61.0821 30.7419C61.2785 30.4869 61.3767 30.2126 61.3767 29.9192C61.3812 29.4317 61.2988 29.0052 61.1295 28.6395C60.9602 28.2739 60.7233 27.9884 60.4186 27.783C60.1139 27.5777 59.7562 27.475 59.3454 27.475C58.9753 27.475 58.6457 27.5641 58.3569 27.7424C58.068 27.9207 57.8411 28.169 57.6764 28.4872C57.5116 28.8054 57.4293 29.1722 57.4293 29.5875C57.4293 30.2059 57.5963 30.6934 57.9303 31.05ZM65.9419 36.25V34.5031H64.2695V36.25H65.9419ZM72.8388 35.969C72.3152 36.2556 71.6991 36.3989 70.9904 36.3989C70.214 36.3989 69.5403 36.2014 68.9693 35.8065C68.3983 35.4115 67.9582 34.8495 67.649 34.1205C67.3398 33.3915 67.1852 32.5237 67.1852 31.5171C67.1852 30.4609 67.3364 29.5434 67.6388 28.7648C67.9413 27.9862 68.3836 27.3847 68.9659 26.9604C69.5482 26.5361 70.2569 26.3239 71.092 26.3239C71.6517 26.3239 72.1696 26.4277 72.6459 26.6354C73.1221 26.843 73.5148 27.1421 73.824 27.5325C74.1332 27.923 74.3171 28.3958 74.3758 28.951H73.0284C72.902 28.4996 72.6752 28.1464 72.3479 27.8914C72.0207 27.6363 71.611 27.5088 71.119 27.5088C70.5729 27.5088 70.1158 27.6634 69.7479 27.9726C69.3801 28.2818 69.1137 28.7321 68.949 29.3234C68.7842 29.9147 68.7312 30.6279 68.7899 31.463C68.9163 31.1651 69.1025 30.9044 69.3485 30.6809C69.5945 30.4575 69.8777 30.2849 70.1982 30.163C70.5187 30.0411 70.8617 29.9802 71.2274 29.9802C71.8774 29.9802 72.4461 30.1043 72.9336 30.3526C73.4211 30.6008 73.8014 30.9552 74.0745 31.4156C74.3476 31.876 74.4841 32.4222 74.4841 33.0541C74.4841 33.7041 74.3408 34.2808 74.0542 34.7841C73.7676 35.2874 73.3624 35.6823 72.8388 35.969ZM70.9633 35.2343C70.5571 35.2343 70.2016 35.1316 69.8969 34.9263C69.5922 34.7209 69.3552 34.4354 69.186 34.0698C69.0167 33.7041 68.9366 33.2798 68.9456 32.7968C68.9456 32.4989 69.0426 32.2236 69.2367 31.9708C69.4308 31.718 69.6814 31.5138 69.9883 31.358C70.2952 31.2023 70.618 31.1244 70.9565 31.1244C71.3673 31.1244 71.7205 31.2034 72.0162 31.3614C72.3118 31.5194 72.5387 31.7474 72.6966 32.0453C72.8546 32.3432 72.9336 32.702 72.9336 33.1218C72.9336 33.5371 72.8479 33.9039 72.6763 34.2221C72.5048 34.5403 72.2712 34.7886 71.9755 34.9669C71.6799 35.1452 71.3425 35.2343 70.9633 35.2343ZM77.8531 26.4593H78.8619V36.25H77.3791V28.5854H75.5239V27.6849C76.1017 27.6849 76.5564 27.6386 76.8882 27.5461C77.22 27.4535 77.4592 27.3158 77.6059 27.133C77.7526 26.9502 77.835 26.7257 77.8531 26.4593Z" fill="#2D314D"/>
</svg>
