<svg width="180" height="51" viewBox="0 0 180 51" fill="none" xmlns="http://www.w3.org/2000/svg">
<rect x="0.695801" y="0.5" width="179.167" height="50" rx="4" fill="white"/>
<path fill-rule="evenodd" clip-rule="evenodd" d="M46.4902 19.25V18.5719H43.7339V18.4807C43.7339 18.2887 43.7837 18.1247 43.8834 17.9885C43.983 17.8524 44.1143 17.7303 44.2771 17.6221C44.44 17.514 44.6186 17.4107 44.8131 17.3122C45.0075 17.2138 45.202 17.1105 45.3964 17.0023C45.5908 16.8942 45.7689 16.7696 45.9305 16.6286C46.0921 16.4877 46.2228 16.32 46.3224 16.1255C46.4221 15.9311 46.4719 15.699 46.4719 15.4292C46.4719 15.1254 46.399 14.8592 46.2532 14.6307C46.1073 14.4023 45.9013 14.2242 45.6352 14.0966C45.3691 13.969 45.0537 13.9052 44.6891 13.9052C44.2686 13.9052 43.9162 13.9818 43.6318 14.1349C43.3474 14.288 43.1323 14.4934 42.9865 14.751C42.8407 15.0087 42.7641 15.2943 42.7568 15.6078H43.5224C43.554 15.287 43.6707 15.0354 43.8724 14.8531C44.0742 14.6708 44.3367 14.5797 44.6599 14.5797C44.9638 14.5797 45.2044 14.6587 45.3818 14.8167C45.5592 14.9747 45.648 15.18 45.648 15.4328C45.648 15.6248 45.5975 15.7919 45.4967 15.9341C45.3958 16.0763 45.2627 16.2039 45.0974 16.3169C44.9322 16.43 44.7511 16.5387 44.5542 16.6432C44.3573 16.7477 44.1599 16.8571 43.9618 16.9714C43.7637 17.0856 43.582 17.2162 43.4167 17.3633C43.2514 17.5103 43.1184 17.6823 43.0175 17.8792C42.9166 18.076 42.8662 18.3082 42.8662 18.5755V19.25H46.4902ZM14.4813 19.25L14.9881 17.8682H17.0699L17.5657 19.25H18.3532L16.4537 13.9781H15.5933L13.6902 19.25H14.4813ZM16.8694 17.1609H15.174L16.0272 14.7438L16.8694 17.1609ZM21.2166 19.1625C20.9966 19.2694 20.7481 19.3229 20.471 19.3229C20.1283 19.3229 19.8245 19.2482 19.5595 19.0987C19.2946 18.9492 19.0874 18.7293 18.9379 18.4388C18.7884 18.1484 18.7137 17.7953 18.7137 17.3797C18.7137 16.9884 18.783 16.6444 18.9215 16.3479C19.06 16.0514 19.2612 15.8205 19.5249 15.6552C19.7886 15.4899 20.104 15.4073 20.471 15.4073C20.7529 15.4073 21.0039 15.4626 21.2238 15.5732C21.4438 15.6838 21.6218 15.8375 21.758 16.0344C21.8941 16.2313 21.9767 16.4609 22.0059 16.7234H21.3314C21.3095 16.5995 21.2627 16.484 21.191 16.3771C21.1193 16.2701 21.0233 16.1845 20.903 16.1201C20.7827 16.0556 20.6399 16.0234 20.4746 16.0234C20.1732 16.0234 19.9278 16.134 19.7382 16.3552C19.5486 16.5764 19.4538 16.9155 19.4538 17.3724C19.4538 17.7905 19.5419 18.1234 19.7181 18.3714C19.8943 18.6193 20.1514 18.7432 20.4892 18.7432C20.6521 18.7432 20.7936 18.7092 20.9139 18.6411C21.0343 18.5731 21.1297 18.4856 21.2001 18.3786C21.2706 18.2717 21.3156 18.1611 21.335 18.0469H21.9986C21.9718 18.2997 21.8898 18.5221 21.7525 18.7141C21.6152 18.9061 21.4365 19.0556 21.2166 19.1625ZM24.2925 19.3229C24.5696 19.3229 24.8181 19.2694 25.0381 19.1625C25.258 19.0556 25.4367 18.9061 25.574 18.7141C25.7113 18.5221 25.7934 18.2997 25.8201 18.0469H25.1566C25.1371 18.1611 25.0921 18.2717 25.0217 18.3786C24.9512 18.4856 24.8558 18.5731 24.7355 18.6411C24.6152 18.7092 24.4736 18.7432 24.3107 18.7432C23.9729 18.7432 23.7158 18.6193 23.5396 18.3714C23.3634 18.1234 23.2753 17.7905 23.2753 17.3724C23.2753 16.9155 23.3701 16.5764 23.5597 16.3552C23.7493 16.134 23.9948 16.0234 24.2961 16.0234C24.4614 16.0234 24.6042 16.0556 24.7245 16.1201C24.8448 16.1845 24.9408 16.2701 25.0125 16.3771C25.0843 16.484 25.131 16.5995 25.1529 16.7234H25.8274C25.7982 16.4609 25.7156 16.2313 25.5795 16.0344C25.4434 15.8375 25.2653 15.6838 25.0454 15.5732C24.8254 15.4626 24.5744 15.4073 24.2925 15.4073C23.9255 15.4073 23.6101 15.4899 23.3464 15.6552C23.0827 15.8205 22.8816 16.0514 22.743 16.3479C22.6045 16.6444 22.5352 16.9884 22.5352 17.3797C22.5352 17.7953 22.6099 18.1484 22.7594 18.4388C22.9089 18.7293 23.1161 18.9492 23.381 19.0987C23.646 19.2482 23.9498 19.3229 24.2925 19.3229ZM29.0638 19.0768C28.8049 19.2409 28.4871 19.3229 28.1104 19.3229C27.7579 19.3229 27.4499 19.247 27.1861 19.0951C26.9224 18.9431 26.7183 18.7226 26.5736 18.4333C26.429 18.1441 26.3567 17.7941 26.3567 17.3833C26.3567 16.9872 26.4254 16.6408 26.5627 16.3443C26.7 16.0477 26.9 15.8175 27.1625 15.6534C27.425 15.4893 27.7421 15.4073 28.114 15.4073C28.4689 15.4073 28.7763 15.4845 29.0364 15.6388C29.2965 15.7931 29.4982 16.018 29.6416 16.3133C29.785 16.6086 29.8567 16.9653 29.8567 17.3833C29.8567 17.7649 29.7893 18.1016 29.6544 18.3932C29.5195 18.6849 29.3226 18.9128 29.0638 19.0768ZM28.114 18.7214C27.8783 18.7214 27.6875 18.6594 27.5416 18.5354C27.3958 18.4115 27.2901 18.2462 27.2244 18.0396C27.1588 17.833 27.126 17.6069 27.126 17.3615C27.126 17.0844 27.1631 16.8444 27.2372 16.6414C27.3113 16.4385 27.4213 16.2817 27.5671 16.1711C27.713 16.0605 27.8953 16.0052 28.114 16.0052C28.3473 16.0052 28.5357 16.066 28.6791 16.1875C28.8225 16.309 28.9264 16.4725 28.9908 16.6779C29.0552 16.8833 29.0875 17.1111 29.0875 17.3615C29.0875 17.6313 29.051 17.8688 28.9781 18.0742C28.9052 18.2796 28.7964 18.4388 28.6518 18.5518C28.5072 18.6648 28.3279 18.7214 28.114 18.7214ZM32.3933 19.2482C32.239 19.3004 32.0755 19.3254 31.9029 19.3229C31.7134 19.3205 31.5323 19.2925 31.3597 19.2391C31.1871 19.1856 31.0334 19.1054 30.8985 18.9984C30.7636 18.8915 30.6567 18.759 30.5777 18.601C30.4987 18.4431 30.4592 18.2596 30.4592 18.0505V15.4802H31.243V17.9667C31.243 18.1927 31.3135 18.3762 31.4545 18.5172C31.5955 18.6582 31.8082 18.7287 32.0925 18.7287C32.3502 18.7287 32.5568 18.6612 32.7123 18.5263C32.8679 18.3914 32.9457 18.1939 32.9457 17.9339V15.4802H33.7222V19.25H33.117L33.0295 18.5208C32.9858 18.7177 32.9074 18.8751 32.7944 18.993C32.6813 19.1109 32.5477 19.1959 32.3933 19.2482ZM35.4296 19.25V16.7599C35.4296 16.6043 35.4721 16.4749 35.5572 16.3716C35.6423 16.2683 35.7541 16.1911 35.8926 16.1401C36.0312 16.0891 36.177 16.0635 36.3301 16.0635C36.5586 16.0635 36.7451 16.1292 36.8898 16.2604C37.0344 16.3917 37.1067 16.5922 37.1067 16.862V19.25H37.8869V16.7781C37.8869 16.4646 37.8261 16.2088 37.7046 16.0107C37.5831 15.8126 37.4221 15.6668 37.2215 15.5732C37.021 15.4796 36.8029 15.4328 36.5671 15.4328C36.3678 15.4328 36.1922 15.4608 36.0403 15.5167C35.8884 15.5726 35.7608 15.6455 35.6575 15.7354C35.5542 15.8254 35.4721 15.9214 35.4114 16.0234V15.4802H34.6494V19.25H35.4296ZM40.4242 19.2536C40.3282 19.2682 40.2048 19.2755 40.0541 19.2755C39.7746 19.2755 39.5577 19.2379 39.4033 19.1625C39.249 19.0872 39.1421 18.9784 39.0825 18.8362C39.023 18.694 38.9932 18.5221 38.9932 18.3203V16.0417H38.3807V15.4802H39.0151L39.2083 14.3719H39.7734V15.4766H40.6192V16.0417H39.7734L39.777 18.2911C39.777 18.4151 39.7898 18.5056 39.8153 18.5628C39.8408 18.6199 39.8846 18.6563 39.9466 18.6721C40.0085 18.6879 40.093 18.6958 40.2 18.6958H40.6411V19.2026C40.5925 19.2221 40.5202 19.2391 40.4242 19.2536ZM51.8573 19.1297C51.5559 19.2585 51.195 19.3229 50.7745 19.3229C50.5241 19.3229 50.2798 19.2913 50.0417 19.2281C49.8035 19.1649 49.5871 19.0708 49.3927 18.9456C49.1982 18.8204 49.0372 18.6642 48.9096 18.4771C48.782 18.2899 48.7024 18.0712 48.6708 17.8208H49.4838C49.5252 18.0104 49.6072 18.1696 49.7299 18.2984C49.8527 18.4273 50.004 18.5245 50.1838 18.5901C50.3637 18.6557 50.5594 18.6885 50.7708 18.6885C51.0042 18.6885 51.2138 18.6563 51.3997 18.5919C51.5857 18.5275 51.7333 18.4352 51.8427 18.3148C51.9521 18.1945 52.0068 18.0493 52.0068 17.8792C52.0068 17.726 51.9697 17.596 51.8956 17.4891C51.8214 17.3821 51.7169 17.2928 51.582 17.2211C51.4471 17.1494 51.2849 17.0929 51.0953 17.0516L50.0963 16.8255C49.705 16.7429 49.3969 16.5892 49.1721 16.3643C48.9473 16.1395 48.8337 15.8411 48.8312 15.4693C48.8288 15.1582 48.9108 14.8859 49.0773 14.6526C49.2438 14.4193 49.4717 14.2376 49.7609 14.1076C50.0502 13.9775 50.3795 13.9125 50.7489 13.9125C51.1792 13.9125 51.5407 13.9842 51.8336 14.1276C52.1265 14.271 52.3482 14.46 52.4989 14.6945C52.6496 14.9291 52.7262 15.1837 52.7286 15.4583H51.9302C51.9107 15.2347 51.8451 15.0573 51.7333 14.926C51.6215 14.7948 51.4811 14.7006 51.3122 14.6435C51.1433 14.5864 50.958 14.5578 50.7562 14.5578C50.6104 14.5578 50.4706 14.576 50.337 14.6125C50.2033 14.649 50.0854 14.7024 49.9833 14.7729C49.8812 14.8434 49.8004 14.9303 49.7409 15.0336C49.6813 15.1369 49.6515 15.2554 49.6515 15.3891C49.6515 15.5689 49.7123 15.7148 49.8338 15.8266C49.9554 15.9384 50.179 16.0344 50.5047 16.1146L51.4818 16.337C51.7613 16.3953 51.9873 16.481 52.1599 16.594C52.3325 16.707 52.4649 16.8352 52.5573 16.9786C52.6496 17.1221 52.7128 17.2709 52.7469 17.4253C52.7809 17.5796 52.7979 17.7273 52.7979 17.8682C52.7979 18.1405 52.7165 18.3865 52.5536 18.6065C52.3908 18.8265 52.1587 19.0009 51.8573 19.1297ZM54.655 19.3229C54.9248 19.3229 55.1672 19.2676 55.3823 19.157C55.5974 19.0464 55.7755 18.8465 55.9165 18.5573L55.9784 19.25H56.6383V16.6141C56.6383 16.3564 56.5843 16.1377 56.4761 15.9578C56.3679 15.778 56.2033 15.6412 55.9821 15.5477C55.7609 15.4541 55.479 15.4073 55.1362 15.4073C54.8276 15.4073 54.559 15.451 54.3305 15.5385C54.102 15.626 53.9228 15.7555 53.7928 15.9268C53.6627 16.0982 53.5904 16.309 53.5758 16.5594H54.254C54.3026 16.3479 54.4053 16.196 54.562 16.1036C54.7188 16.0113 54.8981 15.9651 55.0998 15.9651C55.3671 15.9627 55.5652 16.0234 55.6941 16.1474C55.8229 16.2714 55.8873 16.4415 55.8873 16.6578V16.9313L55.2675 16.9495C54.6185 16.9616 54.1458 17.071 53.8493 17.2776C53.5527 17.4842 53.4045 17.7965 53.4045 18.2146C53.4045 18.4479 53.4579 18.6472 53.5649 18.8125C53.6718 18.9778 53.8195 19.1042 54.0079 19.1917C54.1962 19.2792 54.4119 19.3229 54.655 19.3229ZM54.367 18.6102C54.5079 18.7232 54.6854 18.7797 54.8993 18.7797C55.0184 18.7797 55.1362 18.7584 55.2529 18.7159C55.3696 18.6734 55.4753 18.615 55.5701 18.5409C55.6649 18.4668 55.7408 18.3835 55.798 18.2912C55.8551 18.1988 55.8849 18.104 55.8873 18.0068V17.3833L55.3769 17.3943C55.1168 17.3967 54.8962 17.4234 54.7152 17.4745C54.5341 17.5255 54.3955 17.6045 54.2995 17.7115C54.2035 17.8184 54.1555 17.9606 54.1555 18.138C54.1555 18.3398 54.226 18.4971 54.367 18.6102ZM59.1501 19.25L60.5209 15.4802H59.799L58.8438 18.262H58.7928L57.8376 15.4802H57.1157L58.4902 19.25H59.1501ZM61.9216 13.9818V14.751H61.1377V13.9818H61.9216ZM61.907 19.25V15.4802H61.156V19.25H61.907ZM63.7374 16.7599V19.25H62.9572V15.4802H63.7192V16.0234C63.78 15.9214 63.862 15.8254 63.9653 15.7354C64.0686 15.6455 64.1962 15.5726 64.3481 15.5167C64.5 15.4608 64.6756 15.4328 64.875 15.4328C65.1107 15.4328 65.3289 15.4796 65.5294 15.5732C65.7299 15.6668 65.8909 15.8126 66.0125 16.0107C66.134 16.2088 66.1947 16.4646 66.1947 16.7781V19.25H65.4145V16.862C65.4145 16.5922 65.3422 16.3917 65.1976 16.2604C65.053 16.1292 64.8664 16.0635 64.638 16.0635C64.4848 16.0635 64.339 16.0891 64.2005 16.1401C64.0619 16.1911 63.9501 16.2683 63.8651 16.3716C63.78 16.4749 63.7374 16.6043 63.7374 16.7599ZM68.7156 20.4969C69.3548 20.4969 69.8312 20.3869 70.1448 20.1669C70.4583 19.947 70.6151 19.6644 70.6151 19.3193C70.6151 19.0179 70.5063 18.776 70.2888 18.5938C70.0713 18.4115 69.7559 18.3082 69.3427 18.2839C69.1726 18.2717 69.0176 18.262 68.8778 18.2547C68.7381 18.2474 68.6232 18.2401 68.5333 18.2328C68.283 18.2158 68.1031 18.1951 67.9937 18.1708C67.8844 18.1465 67.8297 18.1004 67.8297 18.0323C67.8297 17.9788 67.8722 17.9296 67.9573 17.8846C68.0423 17.8397 68.1979 17.8135 68.4239 17.8063C68.4604 17.8111 68.5054 17.8142 68.5588 17.8154C68.6123 17.8166 68.6561 17.8172 68.6901 17.8172C69.0474 17.8172 69.3451 17.7625 69.5833 17.6531C69.8215 17.5438 70.0002 17.3973 70.1193 17.2138C70.2383 17.0303 70.2979 16.8292 70.2979 16.6104C70.2979 16.5375 70.2876 16.4573 70.2669 16.3698C70.2463 16.2823 70.2189 16.2021 70.1849 16.1292L70.8411 16.0089L70.8448 15.3307L70.6169 15.4255C70.5233 15.4644 70.4249 15.5045 70.3216 15.5458C70.2183 15.5872 70.1241 15.6254 70.039 15.6607C69.954 15.6959 69.8884 15.7221 69.8422 15.7391C69.7012 15.6394 69.5469 15.5616 69.3792 15.5057C69.2114 15.4498 69.0036 15.4219 68.7557 15.4219C68.4154 15.4219 68.1195 15.4693 67.868 15.5641C67.6164 15.6589 67.4213 15.7956 67.2828 15.9742C67.1443 16.1529 67.075 16.3649 67.075 16.6104C67.075 16.8243 67.1376 17.026 67.2627 17.2156C67.3879 17.4052 67.5647 17.5559 67.7932 17.6677C67.5623 17.7163 67.3891 17.7923 67.2737 17.8956C67.1582 17.9989 67.1005 18.1113 67.1005 18.2328C67.1005 18.3373 67.126 18.4218 67.1771 18.4862C67.2281 18.5506 67.2858 18.6017 67.3502 18.6393L67.5088 18.7323C67.487 18.7469 67.4384 18.7718 67.363 18.807C67.2877 18.8423 67.2056 18.8903 67.1169 18.951C67.0282 19.0118 66.9516 19.089 66.8872 19.1826C66.8228 19.2761 66.7906 19.3898 66.7906 19.5234C66.7906 19.8297 66.9583 20.0685 67.2937 20.2398C67.6292 20.4112 68.1031 20.4969 68.7156 20.4969ZM68.0831 17.15C68.2325 17.2764 68.4422 17.3396 68.712 17.3396C68.9647 17.3396 69.1683 17.2782 69.3226 17.1555C69.477 17.0327 69.5541 16.8559 69.5541 16.625C69.5541 16.3868 69.477 16.2027 69.3226 16.0727C69.1683 15.9426 68.9647 15.8776 68.712 15.8776C68.4568 15.8776 68.2508 15.9432 68.094 16.0745C67.9372 16.2057 67.8588 16.3892 67.8588 16.625C67.8588 16.8486 67.9336 17.0236 68.0831 17.15ZM68.8505 20.0193C68.4106 20.0193 68.0855 19.9688 67.8752 19.868C67.665 19.7671 67.5599 19.6219 67.5599 19.4323C67.5599 19.3278 67.5921 19.2324 67.6565 19.1461C67.7209 19.0598 67.8023 18.9924 67.9008 18.9438C67.9992 18.8951 68.0982 18.8733 68.1979 18.8781L69.2042 18.9438C69.4205 18.9583 69.5833 19.0106 69.6927 19.1005C69.8021 19.1905 69.8568 19.3059 69.8568 19.4469C69.8568 19.6365 69.7723 19.7793 69.6034 19.8753C69.4344 19.9713 69.1835 20.0193 68.8505 20.0193ZM73.5673 19.1862C73.3449 19.2773 73.0806 19.3229 72.7743 19.3229C72.5118 19.3229 72.2657 19.2816 72.0361 19.199C71.8064 19.1163 71.6143 18.9863 71.46 18.8089C71.3057 18.6314 71.2091 18.4042 71.1702 18.1271H71.8665C71.8981 18.2705 71.9583 18.389 72.047 18.4826C72.1357 18.5761 72.2426 18.6454 72.3678 18.6904C72.493 18.7353 72.6273 18.7578 72.7707 18.7578C73.0089 18.7578 73.2015 18.7147 73.3486 18.6284C73.4956 18.5421 73.5691 18.409 73.5691 18.2292C73.5691 18.1004 73.5296 17.9971 73.4506 17.9193C73.3716 17.8415 73.2471 17.7844 73.0769 17.7479L72.3259 17.5693C72.0148 17.4964 71.7657 17.3803 71.5785 17.2211C71.3913 17.0619 71.2966 16.8389 71.2941 16.5521C71.2941 16.3309 71.3494 16.134 71.46 15.9615C71.5706 15.7889 71.7353 15.6534 71.954 15.555C72.1728 15.4565 72.445 15.4073 72.7707 15.4073C73.196 15.4073 73.5375 15.5021 73.7952 15.6917C74.0528 15.8813 74.1865 16.1559 74.1962 16.5156H73.5217C73.4974 16.3431 73.419 16.2076 73.2866 16.1091C73.1541 16.0107 72.9797 15.9615 72.7634 15.9615C72.5398 15.9615 72.3563 16.0058 72.2129 16.0945C72.0695 16.1833 71.9978 16.3188 71.9978 16.501C71.9978 16.625 72.05 16.7228 72.1545 16.7945C72.2591 16.8662 72.4158 16.9252 72.6249 16.9714L73.3394 17.15C73.5242 17.1986 73.6761 17.2624 73.7952 17.3414C73.9143 17.4204 74.0078 17.5073 74.0759 17.6021C74.144 17.6969 74.192 17.7953 74.2199 17.8974C74.2479 17.9995 74.2618 18.0955 74.2618 18.1854C74.2618 18.4236 74.2017 18.6272 74.0814 18.7961C73.9611 18.965 73.7897 19.0951 73.5673 19.1862Z" fill="#9597A5"/>
<path fill-rule="evenodd" clip-rule="evenodd" d="M18.6834 36.0208L18.6844 37.2979H17.3777L17.3771 36.0177L17.1461 35.9911C16.4742 35.8963 15.8958 35.691 15.4107 35.375C14.7179 34.9236 14.3105 34.2465 14.1886 33.3437L15.7053 33.2693C15.8362 33.7929 16.1093 34.1867 16.5245 34.4508C16.9398 34.7148 17.4499 34.8469 18.0547 34.8469C18.4159 34.8469 18.7521 34.7848 19.0636 34.6607C19.3751 34.5365 19.6256 34.3639 19.8152 34.1427C20.0047 33.9215 20.0995 33.6642 20.0995 33.3708C20.0995 32.9555 19.9743 32.6305 19.7238 32.3958C19.4732 32.1611 19.0817 31.976 18.549 31.8406L16.8834 31.4208C16.1521 31.2448 15.571 30.9525 15.1399 30.544C14.7088 30.1355 14.491 29.5859 14.4865 28.8953C14.482 28.3175 14.6343 27.812 14.9435 27.3786C15.2527 26.9453 15.6804 26.6079 16.2266 26.3664L16.4654 26.2703C16.7089 26.1816 16.9664 26.115 17.2381 26.0707L17.4448 26.0437L17.4454 24.6771H18.7589L18.7584 26.05L18.8319 26.0584C19.2185 26.1187 19.5677 26.2293 19.8795 26.3901C20.3783 26.6474 20.7642 26.9893 21.0373 27.4159C21.3104 27.8424 21.4537 28.3085 21.4672 28.814L19.998 28.875C19.9077 28.3333 19.7125 27.9192 19.4123 27.6325C19.1121 27.3459 18.6754 27.2026 18.1021 27.2026C17.8268 27.2026 17.565 27.2364 17.3167 27.3041C17.0685 27.3719 16.8495 27.4712 16.66 27.6021C16.4704 27.733 16.3203 27.8943 16.2097 28.0862C16.0991 28.278 16.0438 28.4981 16.0438 28.7463C16.0438 29.0804 16.16 29.3444 16.3925 29.5385C16.625 29.7326 17.0481 29.9199 17.662 30.1005L19.2803 30.5406C20.1244 30.7663 20.7292 31.1252 21.0948 31.6172C21.4605 32.1092 21.6433 32.687 21.6433 33.3505C21.6433 33.8831 21.4943 34.3526 21.1964 34.7588C20.8985 35.1651 20.4798 35.4822 19.9404 35.7101L19.7039 35.8009C19.4621 35.8846 19.2043 35.9474 18.9306 35.9893L18.6834 36.0208ZM29.7522 34.6573V35.9166H23.022V34.664C23.022 34.1675 23.1157 33.7364 23.303 33.3708C23.4903 33.0052 23.7374 32.6858 24.0444 32.4127C24.3513 32.1396 24.6888 31.897 25.0566 31.6849C25.4245 31.4727 25.7913 31.2696 26.1569 31.0755C26.5225 30.8814 26.8588 30.6794 27.1657 30.4695C27.4727 30.2596 27.7198 30.0226 27.9072 29.7586C28.0945 29.4945 28.1881 29.1842 28.1881 28.8276C28.1881 28.3581 28.0234 27.9767 27.6939 27.6833C27.3644 27.3899 26.9175 27.2432 26.3532 27.2432C25.7529 27.2432 25.2654 27.4125 24.8907 27.751C24.5161 28.0896 24.2994 28.5568 24.2407 29.1526H22.8189C22.8324 28.5703 22.9746 28.0399 23.2454 27.5614C23.5163 27.083 23.9157 26.7015 24.4439 26.4172C24.972 26.1328 25.6265 25.9906 26.4074 25.9906C27.0845 25.9906 27.6702 26.1091 28.1644 26.3461C28.6587 26.5831 29.0413 26.9137 29.3121 27.338C29.5829 27.7623 29.7184 28.2566 29.7184 28.8208C29.7184 29.3219 29.6258 29.7529 29.4407 30.114C29.2557 30.4752 29.0131 30.7866 28.7129 31.0484C28.4127 31.3102 28.0821 31.5416 27.721 31.7424C27.3598 31.9433 26.9987 32.1351 26.6376 32.3179C26.2765 32.5008 25.9447 32.6926 25.6423 32.8935C25.3399 33.0943 25.0961 33.3212 24.9111 33.5739C24.726 33.8267 24.6335 34.1314 24.6335 34.488V34.6573H29.7522ZM34.4118 36.0656C35.5132 36.0656 36.3832 35.6402 37.022 34.7893C37.6607 33.9384 37.98 32.6892 37.98 31.0416C37.98 29.385 37.6584 28.1291 37.0152 27.2737C36.372 26.4183 35.5064 25.9906 34.4186 25.9906C33.6918 25.9906 33.061 26.1824 32.5261 26.5661C31.9912 26.9498 31.5771 27.5174 31.2837 28.269C30.9903 29.0206 30.8436 29.9493 30.8436 31.0552C30.8436 32.7028 31.1618 33.9497 31.7983 34.7961C32.4347 35.6424 33.3059 36.0656 34.4118 36.0656ZM32.8985 33.9463C33.2438 34.5377 33.7505 34.8333 34.4186 34.8333C35.0866 34.8333 35.5877 34.5388 35.9217 33.9497C36.2557 33.3607 36.4227 32.3936 36.4227 31.0484C36.4227 29.6762 36.2535 28.6888 35.9149 28.0862C35.5764 27.4836 35.0753 27.1823 34.4118 27.1823C33.7528 27.1823 33.2495 27.4858 32.9019 28.0929C32.5543 28.7001 32.3806 29.6852 32.3806 31.0484C32.3806 32.389 32.5532 33.355 32.8985 33.9463ZM39.6275 37.6703L40.8327 35.7068V34.2984H39.1535V35.9099L39.7697 35.9505L39.0045 37.6703H39.6275ZM48.124 33.5062V35.9166H46.7157V33.5062H42.1318V32.2333L46.6683 26.126H48.124V32.2536H49.7152V33.5062H48.124ZM46.6954 32.2536H43.4995L46.6954 27.9677V32.2536ZM54.1611 34.444C54.0076 35.006 53.9128 35.4969 53.8767 35.9166H52.2991C52.3623 35.4833 52.4819 34.9439 52.6579 34.2984C52.834 33.6529 53.0721 32.9454 53.3723 32.1758C53.6724 31.4061 54.0369 30.6083 54.4657 29.7823C54.8946 28.9562 55.3934 28.146 55.9621 27.3515H50.5319V26.126H57.5262V27.3515C57.1876 27.8074 56.8513 28.3265 56.5173 28.9088C56.1833 29.4911 55.8662 30.1016 55.566 30.7403C55.2658 31.3791 54.995 32.0155 54.7535 32.6497C54.512 33.2839 54.3145 33.882 54.1611 34.444ZM62.4617 36.0656C63.1974 36.0656 63.8373 35.9279 64.3812 35.6526C64.9251 35.3772 65.3461 34.989 65.644 34.488C65.9419 33.987 66.0908 33.3956 66.0908 32.714C66.0908 32.0234 65.9396 31.4423 65.6372 30.9706C65.3348 30.4989 64.9319 30.1411 64.4286 29.8974C63.9253 29.6536 63.369 29.5318 62.7596 29.5318C62.3263 29.5318 61.9245 29.5916 61.5544 29.7112C61.1842 29.8308 60.8322 30.026 60.4981 30.2969L60.7283 27.3515H65.4476L65.495 26.126H59.5299L59.083 31.1838L60.2408 31.6036C60.286 31.6262 60.3165 31.6375 60.3322 31.6375C60.348 31.6375 60.374 31.6285 60.4101 31.6104C60.6493 31.3666 60.8762 31.1827 61.0906 31.0586C61.305 30.9344 61.5205 30.8509 61.7372 30.8081C61.9539 30.7652 62.1863 30.7437 62.4346 30.7437C62.8318 30.7437 63.1907 30.8284 63.5112 30.9976C63.8316 31.1669 64.0867 31.4028 64.2763 31.7052C64.4658 32.0076 64.5606 32.3597 64.5606 32.7614C64.5606 33.4069 64.3575 33.9181 63.9513 34.295C63.545 34.6719 63.0101 34.8604 62.3466 34.8604C61.9268 34.8604 61.5544 34.7825 61.2294 34.6268C60.9044 34.4711 60.6223 34.2544 60.383 33.9768C60.1438 33.6992 59.9429 33.3844 59.7804 33.0323L58.5684 33.6078C58.749 34.0908 59.0277 34.5162 59.4046 34.8841C59.7816 35.252 60.2318 35.5409 60.7554 35.7508C61.279 35.9607 61.8478 36.0656 62.4617 36.0656ZM68.916 34.1698V35.9166H67.2436V34.1698H68.916ZM73.7275 36.0656C74.8289 36.0656 75.6989 35.6402 76.3377 34.7893C76.9764 33.9384 77.2957 32.6892 77.2957 31.0416C77.2957 29.385 76.9741 28.1291 76.3309 27.2737C75.6877 26.4183 74.8221 25.9906 73.7343 25.9906C73.0075 25.9906 72.3767 26.1824 71.8418 26.5661C71.3069 26.9498 70.8928 27.5174 70.5994 28.269C70.306 29.0206 70.1593 29.9493 70.1593 31.0552C70.1593 32.7028 70.4775 33.9497 71.114 34.7961C71.7504 35.6424 72.6216 36.0656 73.7275 36.0656ZM72.2142 33.9463C72.5595 34.5377 73.0662 34.8333 73.7343 34.8333C74.4023 34.8333 74.9034 34.5388 75.2374 33.9497C75.5714 33.3607 75.7384 32.3936 75.7384 31.0484C75.7384 29.6762 75.5692 28.6888 75.2306 28.0862C74.8921 27.4836 74.391 27.1823 73.7275 27.1823C73.0685 27.1823 72.5652 27.4858 72.2176 28.0929C71.87 28.7001 71.6962 29.6852 71.6962 31.0484C71.6962 32.389 71.8689 33.355 72.2142 33.9463ZM81.8478 36.0656C82.9492 36.0656 83.8193 35.6402 84.458 34.7893C85.0967 33.9384 85.4161 32.6892 85.4161 31.0416C85.4161 29.385 85.0945 28.1291 84.4512 27.2737C83.808 26.4183 82.9425 25.9906 81.8546 25.9906C81.1279 25.9906 80.4971 26.1824 79.9622 26.5661C79.4273 26.9498 79.0131 27.5174 78.7197 28.269C78.4263 29.0206 78.2796 29.9493 78.2796 31.0552C78.2796 32.7028 78.5978 33.9497 79.2343 34.7961C79.8708 35.6424 80.7419 36.0656 81.8478 36.0656ZM80.3346 33.9463C80.6799 34.5377 81.1866 34.8333 81.8546 34.8333C82.5227 34.8333 83.0237 34.5388 83.3577 33.9497C83.6918 33.3607 83.8588 32.3936 83.8588 31.0484C83.8588 29.6762 83.6895 28.6888 83.351 28.0862C83.0124 27.4836 82.5114 27.1823 81.8478 27.1823C81.1888 27.1823 80.6855 27.4858 80.338 28.0929C79.9904 28.7001 79.8166 29.6852 79.8166 31.0484C79.8166 32.389 79.9893 33.355 80.3346 33.9463Z" fill="#2D314D"/>
</svg>
